<svg width="256" height="256" viewBox="0 0 256 256" fill="none" xmlns="http://www.w3.org/2000/svg">
<g clip-path="url(#clip0_143_8)">
<path d="M116.849 4.54507L4.5288 116.775C3.09334 118.205 1.95436 119.905 1.17721 121.777C0.40005 123.648 0 125.655 0 127.681C0 129.708 0.40005 131.714 1.17721 133.586C1.95436 135.457 3.09334 137.157 4.5288 138.587L116.849 250.816C122.888 256.849 132.641 256.849 138.679 250.816L185.774 203.76C191.182 198.356 191.182 189.595 185.774 184.192C180.366 178.788 171.598 178.788 166.19 184.192L130.488 219.864C128.985 221.366 126.704 221.366 125.201 219.864L35.5048 130.242C34.0018 128.74 34.0018 126.461 35.5048 124.959L125.201 35.3361C126.704 33.8351 128.985 33.8351 130.488 35.3361L166.19 71.0091C171.598 76.4131 180.366 76.4131 185.774 71.0091C191.182 65.6051 191.182 56.8451 185.774 51.4411L138.684 4.39107C132.621 -1.51293 122.864 -1.46493 116.849 4.54507Z" fill="url(#paint0_linear_143_8)"/>
<path d="M116.849 4.5452L4.5288 116.775C3.09334 118.206 1.95436 119.905 1.17721 121.777C0.40005 123.648 0 125.655 0 127.681C0 129.708 0.40005 131.714 1.17721 133.586C1.95436 135.457 3.09334 137.157 4.5288 138.587L116.849 250.816C122.888 256.849 132.641 256.849 138.679 250.816L185.774 203.76C191.182 198.356 191.182 189.595 185.774 184.192C180.366 178.788 171.598 178.788 166.19 184.192L130.488 219.864C128.985 221.366 126.704 221.366 125.201 219.864L35.5048 130.242C34.0018 128.74 34.0018 126.461 35.5048 124.959L125.201 35.3362C128.943 32.1102 135.05 25.5762 144.016 24.0462C150.68 22.9112 157.966 25.4112 165.873 31.5462L138.685 4.3902C132.621 -1.5128 122.865 -1.4648 116.849 4.5452Z" fill="url(#paint1_linear_143_8)"/>
<path d="M196.647 173.754C202.055 179.158 210.823 179.158 216.231 173.754L250.97 139.044C252.405 137.614 253.544 135.914 254.321 134.043C255.098 132.171 255.498 130.165 255.498 128.138C255.498 126.112 255.098 124.105 254.321 122.234C253.544 120.362 252.405 118.663 250.97 117.232L215.929 82.3423C210.508 76.9453 201.737 76.9533 196.326 82.3603C190.918 87.7643 190.918 96.5243 196.326 101.928L219.993 125.576C221.496 127.078 221.496 129.357 219.993 130.859L196.647 154.186C191.239 159.59 191.239 168.351 196.647 173.754Z" fill="url(#paint2_linear_143_8)"/>
<path d="M128.327 158.544C145.076 158.544 158.654 144.978 158.654 128.242C158.654 111.507 145.076 97.9404 128.327 97.9404C111.578 97.9404 98 111.507 98 128.242C98 144.978 111.578 158.544 128.327 158.544Z" fill="url(#paint3_linear_143_8)"/>
</g>
<defs>
<linearGradient id="paint0_linear_143_8" x1="11788.8" y1="0.000219062" x2="22462.6" y2="6518.32" gradientUnits="userSpaceOnUse">
<stop stop-color="#4285EB"/>
<stop offset="1" stop-color="#2EC7FF"/>
</linearGradient>
<linearGradient id="paint1_linear_143_8" x1="13220.5" y1="0.00022773" x2="7948.67" y2="27246.5" gradientUnits="userSpaceOnUse">
<stop stop-color="#29CDFF"/>
<stop offset="0.3786" stop-color="#148EFF"/>
<stop offset="1" stop-color="#0A60FF"/>
</linearGradient>
<linearGradient id="paint2_linear_143_8" x1="4598.75" y1="-1212.71" x2="-2260.81" y2="9514.89" gradientUnits="userSpaceOnUse">
<stop stop-color="#FA816E"/>
<stop offset="0.41473" stop-color="#F74A5C"/>
<stop offset="1" stop-color="#F51D2C"/>
</linearGradient>
<linearGradient id="paint3_linear_143_8" x1="4230.24" y1="-2065.08" x2="1947.85" y2="7064.83" gradientUnits="userSpaceOnUse">
<stop stop-color="#FA8E7D"/>
<stop offset="0.51264" stop-color="#F74A5C"/>
<stop offset="1" stop-color="#F51D2C"/>
</linearGradient>
<clipPath id="clip0_143_8">
<rect width="256" height="256" fill="white"/>
</clipPath>
</defs>
</svg>
