<svg width="16" height="16" viewBox="0 0 16 16" fill="none" xmlns="http://www.w3.org/2000/svg">
<path d="M12.6663 2.66671H11.333V2.00004C11.333 1.82323 11.2628 1.65366 11.1377 1.52864C11.0127 1.40361 10.8432 1.33337 10.6663 1.33337C10.4895 1.33337 10.32 1.40361 10.1949 1.52864C10.0699 1.65366 9.99967 1.82323 9.99967 2.00004V2.66671H5.99967V2.00004C5.99967 1.82323 5.92944 1.65366 5.80441 1.52864C5.67939 1.40361 5.50982 1.33337 5.33301 1.33337C5.1562 1.33337 4.98663 1.40361 4.8616 1.52864C4.73658 1.65366 4.66634 1.82323 4.66634 2.00004V2.66671H3.33301C2.80257 2.66671 2.29387 2.87742 1.91879 3.25249C1.54372 3.62757 1.33301 4.13627 1.33301 4.66671V12.6667C1.33301 13.1971 1.54372 13.7058 1.91879 14.0809C2.29387 14.456 2.80257 14.6667 3.33301 14.6667H12.6663C13.1968 14.6667 13.7055 14.456 14.0806 14.0809C14.4556 13.7058 14.6663 13.1971 14.6663 12.6667V4.66671C14.6663 4.13627 14.4556 3.62757 14.0806 3.25249C13.7055 2.87742 13.1968 2.66671 12.6663 2.66671ZM13.333 12.6667C13.333 12.8435 13.2628 13.0131 13.1377 13.1381C13.0127 13.2631 12.8432 13.3334 12.6663 13.3334H3.33301C3.1562 13.3334 2.98663 13.2631 2.8616 13.1381C2.73658 13.0131 2.66634 12.8435 2.66634 12.6667V8.00004H13.333V12.6667ZM13.333 6.66671H2.66634V4.66671C2.66634 4.4899 2.73658 4.32033 2.8616 4.1953C2.98663 4.07028 3.1562 4.00004 3.33301 4.00004H4.66634V4.66671C4.66634 4.84352 4.73658 5.01309 4.8616 5.13811C4.98663 5.26314 5.1562 5.33337 5.33301 5.33337C5.50982 5.33337 5.67939 5.26314 5.80441 5.13811C5.92944 5.01309 5.99967 4.84352 5.99967 4.66671V4.00004H9.99967V4.66671C9.99967 4.84352 10.0699 5.01309 10.1949 5.13811C10.32 5.26314 10.4895 5.33337 10.6663 5.33337C10.8432 5.33337 11.0127 5.26314 11.1377 5.13811C11.2628 5.01309 11.333 4.84352 11.333 4.66671V4.00004H12.6663C12.8432 4.00004 13.0127 4.07028 13.1377 4.1953C13.2628 4.32033 13.333 4.4899 13.333 4.66671V6.66671Z" fill="#F24E1E"/>
</svg>
