<svg width="13" height="7" viewBox="0 0 13 7" fill="none" xmlns="http://www.w3.org/2000/svg">
<path d="M6.88471 0.233715C7.02558 0.0996038 7.21303 0.0254618 7.40753 0.0269334C7.60202 0.028405 7.78833 0.105375 7.92715 0.241603C8.06598 0.37783 8.14645 0.562659 8.15159 0.757089C8.15673 0.951519 8.08614 1.14034 7.95471 1.28372L3.96471 6.27372C3.8961 6.34761 3.81329 6.40692 3.72124 6.44808C3.62919 6.48925 3.52978 6.51142 3.42896 6.51329C3.32814 6.51516 3.22798 6.49667 3.13446 6.45895C3.04095 6.42122 2.95601 6.36502 2.88471 6.29371L0.238708 3.64771C0.165021 3.57905 0.105919 3.49625 0.0649272 3.40425C0.0239353 3.31225 0.00189351 3.21294 0.000116721 3.11224C-0.00166006 3.01153 0.0168646 2.91151 0.0545856 2.81812C0.0923066 2.72473 0.148451 2.6399 0.21967 2.56868C0.290889 2.49746 0.375722 2.44131 0.469111 2.40359C0.562499 2.36587 0.662528 2.34735 0.763231 2.34912C0.863934 2.3509 0.963247 2.37294 1.05525 2.41393C1.14725 2.45493 1.23005 2.51403 1.29871 2.58771L3.39271 4.68071L6.86471 0.255715C6.87094 0.247995 6.87761 0.240648 6.88471 0.233715V0.233715ZM5.96471 5.37371L6.88471 6.29371C6.95599 6.36487 7.04087 6.42093 7.13429 6.45857C7.22771 6.4962 7.32775 6.51464 7.42845 6.51277C7.52915 6.51091 7.62844 6.48878 7.7204 6.44771C7.81237 6.40663 7.89511 6.34746 7.96371 6.27372L11.9557 1.28372C12.0274 1.21292 12.0841 1.12839 12.1224 1.03519C12.1608 0.941988 12.1799 0.84202 12.1787 0.741256C12.1776 0.640491 12.1561 0.540996 12.1156 0.448713C12.0751 0.35643 12.0165 0.273251 11.9431 0.204144C11.8698 0.135037 11.7833 0.0814185 11.6887 0.0464909C11.5942 0.0115633 11.4936 -0.00395738 11.393 0.000856136C11.2923 0.00566965 11.1936 0.0307188 11.1029 0.074507C11.0121 0.118295 10.9311 0.179925 10.8647 0.255715L7.39171 4.68071L6.90671 4.19471L5.96371 5.37371H5.96471Z" fill="#54A044"/>
</svg>
