<svg width="59" height="66" viewBox="0 0 59 66" fill="none" xmlns="http://www.w3.org/2000/svg">
<g clip-path="url(#clip0_62_13)">
<path d="M56.1103 14.603L31.8643 0.604828C30.4676 -0.201609 28.1819 -0.201609 26.7852 0.604828L2.53958 14.603C1.14275 15.4095 0 17.3889 0 19.0018V46.9982C0.108668 48.8766 1.06812 50.4323 2.53945 51.397L26.7854 65.395C28.182 66.2016 30.4678 66.2016 31.8645 65.395L56.1103 51.397C57.6892 50.3469 58.5879 48.7663 58.6499 46.9982V19.0018C58.5932 17.3048 57.577 15.5931 56.1104 14.603H56.1103ZM9.77496 33.0001C9.66011 13.9104 35.2288 5.48122 46.2549 23.219L37.7943 28.1148C32.6868 19.6672 20.0051 22.6879 19.5499 33.0001C19.6866 42.5043 32.151 46.9192 37.7948 37.8846L46.2556 42.7805C36.5382 59.6494 10.2649 53.5803 9.77509 33.0001H9.77496ZM48.8748 34.086H46.7025V36.2584H44.5307V34.086H42.3583V31.914H44.5307V29.7419H46.7027V31.914H48.8749V34.086H48.8748ZM57.0206 34.086H54.8483V36.2584H52.6763V34.086H50.5042V31.914H52.6765V29.7419H54.8484V31.914H57.0208V34.086H57.0206Z" fill="#F24E1E"/>
</g>
<defs>
<clipPath id="clip0_62_13">
<rect width="58.6523" height="66" fill="white"/>
</clipPath>
</defs>
</svg>
