<svg width="256" height="256" viewBox="0 0 256 256" fill="none" xmlns="http://www.w3.org/2000/svg">
<g clip-path="url(#clip0_144_29)">
<path d="M196 0H60C26.8629 0 0 26.8629 0 60V196C0 229.137 26.8629 256 60 256H196C229.137 256 256 229.137 256 196V60C256 26.8629 229.137 0 196 0Z" fill="#F03C2E"/>
<mask id="mask0_144_29" style="mask-type:luminance" maskUnits="userSpaceOnUse" x="28" y="28" width="200" height="200">
<path d="M28 28H228V228H28V28Z" fill="white"/>
</mask>
<g mask="url(#mask0_144_29)">
<path d="M224.224 119.094L136.905 31.7747C135.105 29.9723 132.81 28.7447 130.311 28.2475C127.813 27.7503 125.223 28.0058 122.87 28.9817C121.307 29.6292 119.888 30.5783 118.693 31.7747L100.568 49.8997L123.568 72.8997C128.918 71.0247 135.043 72.3057 139.305 76.5687C141.334 78.6014 142.75 81.1638 143.392 83.9631C144.034 86.7625 143.876 89.6859 142.936 92.3997L165.105 114.569C170.468 112.719 176.655 113.912 180.936 118.206C183.08 120.349 184.54 123.081 185.132 126.055C185.723 129.029 185.418 132.111 184.257 134.912C182.7 138.667 179.715 141.65 175.959 143.205C172.203 144.76 167.984 144.76 164.228 143.205C162.368 142.434 160.678 141.305 159.255 139.881C154.755 135.381 153.643 128.756 155.918 123.212L135.243 102.537V156.944C136.744 157.686 138.115 158.665 139.305 159.844C142.179 162.718 143.794 166.616 143.794 170.681C143.794 174.746 142.179 178.644 139.305 181.519C136.43 184.393 132.532 186.008 128.467 186.008C124.402 186.008 120.504 184.393 117.63 181.519C115.484 179.376 114.023 176.645 113.431 173.672C112.839 170.698 113.143 167.616 114.304 164.815C115.075 162.955 116.205 161.266 117.63 159.844C119.111 158.369 120.755 157.25 122.649 156.5V101.587C120.77 100.818 119.063 99.6817 117.63 98.2437C115.478 96.094 114.015 93.3523 113.427 90.3679C112.839 87.3835 113.154 84.2918 114.33 81.4867L91.6428 58.8127L31.7678 118.625C29.9653 120.426 28.7376 122.721 28.2401 125.221C27.7425 127.72 27.9975 130.31 28.9728 132.665C29.6209 134.228 30.5707 135.648 31.7678 136.844L119.093 224.156C120.288 225.352 121.708 226.301 123.27 226.949C126.426 228.255 129.972 228.255 133.128 226.949C134.69 226.301 136.109 225.352 137.305 224.156L224.224 137.375C225.421 136.179 226.37 134.759 227.018 133.196C227.666 131.633 227.999 129.958 228 128.266C228 126.574 227.666 124.898 227.018 123.335C226.371 121.772 225.421 120.352 224.224 119.156" fill="white"/>
</g>
</g>
<defs>
<clipPath id="clip0_144_29">
<rect width="256" height="256" fill="white"/>
</clipPath>
</defs>
</svg>
