<svg width="40" height="40" viewBox="0 0 40 40" fill="none" xmlns="http://www.w3.org/2000/svg">
<path fill-rule="evenodd" clip-rule="evenodd" d="M12.4416 1.77667C14.3966 1.68667 15.02 1.66667 20 1.66667C24.98 1.66667 25.6033 1.68833 27.5566 1.77667C29.51 1.865 30.8433 2.17667 32.01 2.62833C33.2316 3.09 34.34 3.81167 35.2566 4.745C36.19 5.66 36.91 6.76667 37.37 7.99C37.8233 9.15667 38.1333 10.49 38.2233 12.44C38.3133 14.3983 38.3333 15.0217 38.3333 20C38.3333 24.98 38.3116 25.6033 38.2233 27.5583C38.135 29.5083 37.8233 30.8417 37.37 32.0083C36.91 33.2318 36.1888 34.3403 35.2566 35.2567C34.34 36.19 33.2316 36.91 32.01 37.37C30.8433 37.8233 29.51 38.1333 27.56 38.2233C25.6033 38.3133 24.98 38.3333 20 38.3333C15.02 38.3333 14.3966 38.3117 12.4416 38.2233C10.4916 38.135 9.15829 37.8233 7.99163 37.37C6.76816 36.9099 5.65966 36.1888 4.74329 35.2567C3.81059 34.3411 3.08882 33.2331 2.62829 32.01C2.17663 30.8433 1.86663 29.51 1.77663 27.56C1.68663 25.6017 1.66663 24.9783 1.66663 20C1.66663 15.02 1.68829 14.3967 1.77663 12.4433C1.86496 10.49 2.17663 9.15667 2.62829 7.99C3.0895 6.7668 3.81182 5.65886 4.74496 4.74333C5.66003 3.81084 6.76741 3.08907 7.98996 2.62833C9.15663 2.17667 10.49 1.86667 12.44 1.77667H12.4416ZM27.4083 5.07667C25.475 4.98833 24.895 4.97 20 4.97C15.105 4.97 14.525 4.98833 12.5916 5.07667C10.8033 5.15833 9.83329 5.45667 9.18663 5.70833C8.33163 6.04167 7.71996 6.43667 7.07829 7.07834C6.47003 7.67009 6.00193 8.39047 5.70829 9.18667C5.45663 9.83333 5.15829 10.8033 5.07663 12.5917C4.98829 14.525 4.96996 15.105 4.96996 20C4.96996 24.895 4.98829 25.475 5.07663 27.4083C5.15829 29.1967 5.45663 30.1667 5.70829 30.8133C6.00163 31.6083 6.46996 32.33 7.07829 32.9217C7.66996 33.53 8.39163 33.9983 9.18663 34.2917C9.83329 34.5433 10.8033 34.8417 12.5916 34.9233C14.525 35.0117 15.1033 35.03 20 35.03C24.8966 35.03 25.475 35.0117 27.4083 34.9233C29.1966 34.8417 30.1666 34.5433 30.8133 34.2917C31.6683 33.9583 32.28 33.5633 32.9216 32.9217C33.53 32.33 33.9983 31.6083 34.2916 30.8133C34.5433 30.1667 34.8416 29.1967 34.9233 27.4083C35.0116 25.475 35.03 24.895 35.03 20C35.03 15.105 35.0116 14.525 34.9233 12.5917C34.8416 10.8033 34.5433 9.83333 34.2916 9.18667C33.9583 8.33167 33.5633 7.72 32.9216 7.07834C32.3298 6.47012 31.6095 6.00202 30.8133 5.70833C30.1666 5.45667 29.1966 5.15833 27.4083 5.07667ZM17.6583 25.6517C18.9661 26.1961 20.4223 26.2695 21.7782 25.8595C23.1341 25.4495 24.3056 24.5815 25.0926 23.4037C25.8797 22.226 26.2334 20.8115 26.0934 19.4018C25.9534 17.9922 25.3283 16.675 24.325 15.675C23.6854 15.0358 22.912 14.5464 22.0605 14.2419C21.209 13.9375 20.3007 13.8256 19.4008 13.9144C18.5009 14.0031 17.6319 14.2903 16.8563 14.7552C16.0807 15.2201 15.4179 15.8512 14.9155 16.6031C14.4131 17.3549 14.0836 18.2088 13.9508 19.1033C13.818 19.9977 13.8852 20.9105 14.1475 21.7759C14.4098 22.6412 14.8608 23.4377 15.4678 24.1079C16.0749 24.7781 16.823 25.3053 17.6583 25.6517ZM13.3366 13.3367C14.2117 12.4616 15.2505 11.7675 16.3938 11.2939C17.5371 10.8204 18.7625 10.5766 20 10.5766C21.2375 10.5766 22.4628 10.8204 23.6061 11.2939C24.7494 11.7675 25.7883 12.4616 26.6633 13.3367C27.5383 14.2117 28.2325 15.2505 28.706 16.3938C29.1796 17.5371 29.4233 18.7625 29.4233 20C29.4233 21.2375 29.1796 22.4629 28.706 23.6062C28.2325 24.7495 27.5383 25.7883 26.6633 26.6633C24.8961 28.4306 22.4992 29.4234 20 29.4234C17.5007 29.4234 15.1039 28.4306 13.3366 26.6633C11.5694 24.8961 10.5766 22.4992 10.5766 20C10.5766 17.5008 11.5694 15.1039 13.3366 13.3367ZM31.5133 11.98C31.7301 11.7755 31.9037 11.5295 32.0238 11.2566C32.1439 10.9838 32.208 10.6896 32.2123 10.3916C32.2167 10.0935 32.1612 9.79758 32.0491 9.52135C31.937 9.24512 31.7707 8.99419 31.5599 8.7834C31.3491 8.57261 31.0982 8.40626 30.8219 8.2942C30.5457 8.18213 30.2498 8.12663 29.9517 8.13097C29.6537 8.13532 29.3595 8.19942 29.0867 8.3195C28.8138 8.43957 28.5678 8.61316 28.3633 8.83C27.9655 9.25172 27.7477 9.81187 27.7561 10.3916C27.7646 10.9712 27.9986 11.5248 28.4086 11.9347C28.8185 12.3447 29.3721 12.5787 29.9517 12.5872C30.5314 12.5956 31.0916 12.3778 31.5133 11.98Z" fill="#F24E1E"/>
</svg>
