<svg width="66" height="66" viewBox="0 0 66 66" fill="none" xmlns="http://www.w3.org/2000/svg">
<path d="M0 0H66V66H0V0Z" fill="#F7DF1E"/>
<path d="M17.3538 55.1545L22.4043 52.0978C23.3789 53.8254 24.2652 55.2872 26.3914 55.2872C28.4294 55.2872 29.7146 54.4901 29.7146 51.3891V30.3006H35.9168V51.4768C35.9168 57.9007 32.1512 60.8248 26.6572 60.8248C21.6956 60.8248 18.8156 58.2552 17.3535 55.1539M39.2856 54.4898L44.3357 51.566C45.6652 53.737 47.3931 55.3318 50.4497 55.3318C53.0198 55.3318 54.6585 54.0469 54.6585 52.2747C54.6585 50.1482 52.975 49.3949 50.1395 48.1548L48.5893 47.4897C44.1145 45.5852 41.1463 43.1927 41.1463 38.1422C41.1463 33.4902 44.6904 29.9458 50.2285 29.9458C54.1715 29.9458 57.0069 31.3194 59.0446 34.9079L54.2153 38.0094C53.1518 36.1044 52.0004 35.3514 50.2282 35.3514C48.4117 35.3514 47.2598 36.5033 47.2598 38.0094C47.2598 39.87 48.4117 40.6236 51.0697 41.7755L52.6202 42.4399C57.8925 44.6996 60.8607 47.0032 60.8607 52.1863C60.8607 57.7689 56.4748 60.8256 50.5825 60.8256C44.8232 60.8256 41.1017 58.0788 39.2854 54.4901" fill="black"/>
</svg>
