<svg width="42" height="42" viewBox="0 0 42 42" fill="none" xmlns="http://www.w3.org/2000/svg">
<path d="M22.6702 1.39116C22.3158 1.70616 19.5596 7.17601 19.5596 7.17601L17.5088 15.448L25.4888 14.7163C25.4888 14.7163 32.1268 2.37226 32.2613 2.08679C32.5008 1.56835 32.6288 1.35507 31.7133 1.35507C30.7979 1.35179 23.0016 1.09585 22.6702 1.39116Z" fill="#176CC7"/>
<path d="M26.8009 14.2045C26.4039 13.9913 14.7095 13.8075 14.4339 14.2045C14.1845 14.5655 14.3256 16.4588 14.4207 16.6852C14.5914 17.0789 18.3484 18.6047 18.3484 18.6047V19.553C18.3484 19.553 18.6043 19.658 20.7962 19.658C22.9881 19.658 23.4245 19.5464 23.4245 19.5464L23.4409 18.6342C23.4409 18.6342 26.7025 16.9542 26.8731 16.7213C27.024 16.5277 27.1979 14.4178 26.8009 14.2045ZM23.4081 17.2036C23.4081 17.2036 23.454 16.7508 23.2276 16.6392C23.0012 16.5244 19.0867 16.5441 18.7782 16.5605C18.4698 16.5769 18.4698 17.1281 18.4698 17.1281L16.0187 15.832L15.9761 15.3989L25.1439 15.4481L25.1636 16.0322L23.4081 17.2036Z" fill="#FCC11A"/>
<path d="M19.3725 17.01C19.064 17.01 18.8311 17.3578 18.8311 17.9091C18.8311 18.4275 19.0082 18.8541 19.3987 18.8311C19.7695 18.8114 19.9467 18.3422 19.9204 17.9025C19.8876 17.3874 19.7629 17.01 19.3725 17.01Z" fill="#FDFFFF"/>
<path d="M9.61719 30.217C9.61719 38.0789 16.7408 41.3503 21.4691 41.2092C26.9783 41.0451 32.9042 36.8648 32.4153 29.3639C31.9559 22.3256 25.9545 18.9656 20.7767 19.005C14.7589 19.0476 9.61719 23.3494 9.61719 30.217Z" fill="#F8932A"/>
<path d="M21.1711 39.7983C21.0891 39.7983 21.0038 39.7983 20.9218 39.795C18.4608 39.713 15.9605 38.7844 14.1821 37.0618C12.2789 35.2177 11.1043 32.8847 11.0977 30.204C11.0813 23.1624 17.1155 20.5735 20.9972 20.5735H21.03C26.2899 20.5965 30.8344 24.5274 30.9525 30.0694C31.005 32.5369 29.9944 35.1488 28.0125 37.0979C26.1652 38.9124 23.4385 39.7983 21.1711 39.7983Z" fill="#FCC11A"/>
<path d="M8.37117 1.22064C8.16445 1.41095 16.069 15.4875 16.069 15.4875C16.069 15.4875 17.3946 15.6581 20.3543 15.6844C23.314 15.7106 24.7807 15.5138 24.7807 15.5138C24.7807 15.5138 18.6349 1.36173 18.2674 1.22064C18.087 1.14845 15.6523 1.1222 13.2734 1.09595C10.8912 1.06642 8.56805 1.03689 8.37117 1.22064Z" fill="#2E9DF4"/>
<path d="M17.1573 22.0992C16.6782 21.689 14.2402 22.926 12.5274 25.7578C11.379 27.6576 11.2806 30.089 12.0123 30.1284C12.744 30.1678 12.7341 27.7626 14.3256 25.6593C16.2484 23.1295 17.8496 22.6931 17.1573 22.0992Z" fill="#FEFFFA"/>
<path d="M21.1211 21.9515C20.4812 21.9515 19.4837 26.1811 18.6995 26.7028C17.9153 27.2245 13.8531 26.7258 13.8072 27.2967C13.7612 27.8676 16.8226 30.2433 17.1803 31.1193C17.5379 31.9954 15.6348 35.9165 16.1598 36.2972C16.6815 36.6778 19.9595 33.9445 21.0522 33.9445C22.1907 33.9445 25.1242 36.8615 25.6131 36.4612C26.1282 36.0412 24.4745 32.2087 24.7337 31.3294C24.9962 30.45 28.5564 28.5731 28.4153 27.72C28.2742 26.8636 24.1398 27.5067 23.3786 26.7947C22.6173 26.0826 21.8101 21.9515 21.1211 21.9515Z" fill="#F8932A"/>
</svg>
