<svg width="128" height="128" viewBox="0 0 128 128" fill="none" xmlns="http://www.w3.org/2000/svg">
<path d="M88.6912 88.1102C79.6912 106.51 63.9312 118.89 43.0812 122.96C39.8843 123.743 36.6025 124.126 33.3112 124.1C21.3112 124.1 10.3112 119.1 4.97116 110.91C-2.19884 100 -4.63884 76.8702 19.0012 59.7602C19.4812 62.3702 20.4612 65.9502 21.1112 68.0702C16.4705 71.5179 12.6719 75.9729 10.0012 81.1002C5.60116 89.7402 6.09116 98.3702 11.3012 106.35C14.9012 111.73 20.6012 115 27.9312 116C37.0865 117.159 46.3745 115.41 54.4812 111C67.1912 104.32 75.6612 96.3402 81.2012 85.4302C79.6346 83.8114 78.7074 81.6799 78.5912 79.4302C78.5074 77.0161 79.3849 74.6674 81.0309 72.8994C82.677 71.1315 84.9572 70.0888 87.3712 70.0002H87.7112C90.0591 69.9885 92.3218 70.8798 94.0309 72.4897C95.74 74.0997 96.7648 76.305 96.8933 78.6495C97.0218 80.994 96.244 83.2981 94.721 85.0852C93.1981 86.8722 91.0463 88.0054 88.7112 88.2502L88.6912 88.1102ZM117.361 67.9102C129.571 81.7502 129.901 98.0402 125.181 107.49C120.781 116.12 109.181 124.76 93.5812 124.76C86.2988 124.612 79.1348 122.889 72.5812 119.71C74.8712 118.08 78.1212 115.47 79.9112 113.84C84.965 116.03 90.4038 117.192 95.9112 117.26C106.011 117.26 113.661 112.54 118.221 103.91C121.151 98.2102 121.321 91.5302 118.551 84.6902C115.152 76.0841 109.104 68.7821 101.281 63.8402C91.0178 56.9217 78.9186 53.2334 66.5412 53.2502H63.6112C62.9279 54.8285 61.8164 56.1839 60.4025 57.163C58.9887 58.1422 57.3289 58.7058 55.6112 58.7902H55.3012C52.9253 58.761 50.6545 57.8068 48.9709 56.1302C47.2873 54.4536 46.3237 52.1867 46.2846 49.811C46.2456 47.4353 47.1342 45.138 48.7617 43.4069C50.3893 41.6759 52.6276 40.6475 55.0012 40.5402H55.3312C56.9852 40.5415 58.6069 40.9985 60.0182 41.8612C61.4295 42.7238 62.5758 43.9587 63.3312 45.4302H65.9412C86.7412 45.4302 105.001 53.4102 117.361 67.9102ZM34.6112 90.9102C34.4399 89.2497 34.8422 87.5805 35.7512 86.1802C26.6312 70.3802 21.7512 50.3502 29.2412 29.5002C34.6112 13.8302 48.1312 3.24023 62.7912 3.24023C78.4312 3.24023 94.7212 16.9302 96.6712 43.3102C94.2312 42.5002 90.6712 41.3102 88.5312 40.8702C88.0012 32.2402 80.7112 10.7402 63.4412 11.0602C57.2512 11.2302 48.1312 14.1602 43.4412 20.1802C37.6398 27.3664 34.2649 36.2062 33.8012 45.4302C32.7019 58.078 35.6693 70.7464 42.2712 81.5902C42.6356 81.4571 43.0241 81.4025 43.4112 81.4302H43.7312C46.1499 81.3865 48.487 82.3054 50.2283 83.9847C51.9696 85.6641 52.9724 87.9665 53.0162 90.3852C53.0599 92.804 52.141 95.1411 50.4616 96.8824C48.7823 98.6237 46.4799 99.6265 44.0612 99.6702H43.7312C41.3715 99.6619 39.106 98.7432 37.407 97.1056C35.708 95.4681 34.7065 93.238 34.6112 90.8802V90.9102Z" fill="#764ABC"/>
</svg>
