<svg width="67" height="82" viewBox="0 0 67 82" fill="none" xmlns="http://www.w3.org/2000/svg">
<circle cx="54.7529" cy="12" r="12" transform="rotate(-180 54.7529 12)" fill="#2BCC3C"/>
<path d="M12.3567 67.5572C12.1024 68.3203 11.0247 68.3203 10.7703 67.5572L9.27878 63.0779C8.95047 62.0932 8.39732 61.1985 7.66317 60.4648C6.92902 59.7311 6.03405 59.1784 5.0492 58.8506L0.572182 57.359C-0.190947 57.1047 -0.190947 56.027 0.572182 55.7727L5.05151 54.2811C6.03618 53.9528 6.93085 53.3996 7.6646 52.6655C8.39835 51.9313 8.95101 51.0364 9.27878 50.0515L10.7703 45.5745C10.8252 45.4074 10.9314 45.2619 11.0738 45.1587C11.2163 45.0555 11.3877 45 11.5635 45C11.7394 45 11.9108 45.0555 12.0532 45.1587C12.1957 45.2619 12.3019 45.4074 12.3567 45.5745L13.8483 50.0538C14.1764 51.0383 14.7292 51.9328 15.4629 52.6665C16.1966 53.4002 17.0911 53.953 18.0756 54.2811L22.5549 55.7727C22.722 55.8275 22.8675 55.9337 22.9707 56.0762C23.0739 56.2186 23.1294 56.39 23.1294 56.5659C23.1294 56.7417 23.0739 56.9131 22.9707 57.0556C22.8675 57.198 22.722 57.3042 22.5549 57.359L18.0756 58.8506C17.0911 59.1787 16.1966 59.7315 15.4629 60.4652C14.7292 61.199 14.1764 62.0935 13.8483 63.0779L12.3567 67.5572ZM21.29 79.3487C21.2568 79.4488 21.1929 79.536 21.1074 79.5978C21.0219 79.6595 20.9191 79.6928 20.8136 79.6928C20.7081 79.6928 20.6053 79.6595 20.5198 79.5978C20.4342 79.536 20.3704 79.4488 20.3372 79.3487L19.4423 76.6616C19.0422 75.4637 18.1033 74.5248 16.9054 74.1247L14.2183 73.2298C14.1182 73.1966 14.031 73.1328 13.9692 73.0472C13.9075 72.9617 13.8742 72.8589 13.8742 72.7534C13.8742 72.6479 13.9075 72.5451 13.9692 72.4596C14.031 72.3741 14.1182 72.3102 14.2183 72.277L16.9054 71.3821C17.4962 71.1853 18.0331 70.8535 18.4734 70.4132C18.9137 69.9729 19.2454 69.4361 19.4423 68.8453L20.3372 66.1581C20.3704 66.058 20.4342 65.9709 20.5198 65.9091C20.6053 65.8473 20.7081 65.8141 20.8136 65.8141C20.9191 65.8141 21.0219 65.8473 21.1074 65.9091C21.1929 65.9709 21.2568 66.058 21.29 66.1581L22.1849 68.8453C22.3817 69.4361 22.7135 69.9729 23.1538 70.4132C23.5941 70.8535 24.1309 71.1853 24.7217 71.3821L27.4089 72.277C27.509 72.3102 27.5961 72.3741 27.6579 72.4596C27.7197 72.5451 27.7529 72.6479 27.7529 72.7534C27.7529 72.8589 27.7197 72.9617 27.6579 73.0472C27.5961 73.1328 27.509 73.1966 27.4089 73.2298L24.7217 74.1247C24.1309 74.3216 23.5941 74.6533 23.1538 75.0936C22.7135 75.5339 22.3817 76.0708 22.1849 76.6616L21.29 79.3487ZM4.94283 81.7745C4.92 81.8404 4.87722 81.8975 4.82044 81.9379C4.76366 81.9783 4.6957 82 4.62601 82C4.55632 82 4.48836 81.9783 4.43158 81.9379C4.37481 81.8975 4.33203 81.8404 4.3092 81.7745L3.71257 79.9846C3.44663 79.1845 2.81994 78.5578 2.01981 78.2919L0.229931 77.6953C0.164085 77.6724 0.106989 77.6297 0.0665779 77.5729C0.0261688 77.5161 0.00445557 77.4481 0.00445557 77.3784C0.00445557 77.3088 0.0261688 77.2408 0.0665779 77.184C0.106989 77.1272 0.164085 77.0845 0.229931 77.0616L2.01981 76.465C2.41412 76.3338 2.77242 76.1125 3.06627 75.8187C3.36011 75.5249 3.5814 75.1666 3.71257 74.7722L4.3092 72.9824C4.33203 72.9165 4.37481 72.8594 4.43158 72.819C4.48836 72.7786 4.55632 72.7569 4.62601 72.7569C4.6957 72.7569 4.76366 72.7786 4.82044 72.819C4.87722 72.8594 4.92 72.9165 4.94283 72.9824L5.53946 74.7722C5.67063 75.1666 5.89192 75.5249 6.18576 75.8187C6.4796 76.1125 6.8379 76.3338 7.23221 76.465L9.01978 77.0616C9.08563 77.0845 9.14272 77.1272 9.18313 77.184C9.22354 77.2408 9.24526 77.3088 9.24526 77.3784C9.24526 77.4481 9.22354 77.5161 9.18313 77.5729C9.14272 77.6297 9.08563 77.6724 9.01978 77.6953L7.2299 78.2919C6.42977 78.5578 5.80308 79.1845 5.53714 79.9846L4.94283 81.7722V81.7745Z" fill="#F24E1E"/>
</svg>
