<svg width="83" height="68" viewBox="0 0 83 68" fill="none" xmlns="http://www.w3.org/2000/svg">
<circle cx="70.3767" cy="55.3765" r="12" transform="rotate(-90 70.3767 55.3765)" fill="#387EB8"/>
<path d="M14.8195 12.9803C14.0564 12.726 14.0564 11.6483 14.8195 11.3939L19.2988 9.90238C20.2835 9.57407 21.1782 9.02091 21.9119 8.28676C22.6457 7.55261 23.1983 6.65765 23.5261 5.6728L25.0177 1.19578C25.272 0.43265 26.3497 0.43265 26.604 1.19578L28.0956 5.67511C28.4239 6.65978 28.9771 7.55445 29.7112 8.28819C30.4454 9.02194 31.3403 9.5746 32.3252 9.90238L36.8022 11.3939C36.9693 11.4488 37.1148 11.555 37.218 11.6974C37.3212 11.8399 37.3767 12.0113 37.3767 12.1871C37.3767 12.363 37.3212 12.5344 37.218 12.6768C37.1148 12.8193 36.9693 12.9255 36.8022 12.9803L32.3229 14.4719C31.3385 14.8 30.444 15.3528 29.7102 16.0865C28.9765 16.8202 28.4237 17.7147 28.0956 18.6992L26.604 23.1785C26.5492 23.3456 26.443 23.4911 26.3005 23.5943C26.1581 23.6974 25.9867 23.753 25.8109 23.753C25.635 23.753 25.4636 23.6974 25.3212 23.5943C25.1787 23.4911 25.0725 23.3456 25.0177 23.1785L23.5261 18.6992C23.198 17.7147 22.6452 16.8202 21.9115 16.0865C21.1778 15.3528 20.2832 14.8 19.2988 14.4719L14.8195 12.9803V12.9803ZM3.02801 21.9136C2.92786 21.8804 2.84072 21.8165 2.77895 21.731C2.71718 21.6455 2.68394 21.5427 2.68394 21.4372C2.68394 21.3317 2.71718 21.2289 2.77895 21.1434C2.84072 21.0578 2.92786 20.994 3.02801 20.9608L5.71514 20.0659C6.91302 19.6658 7.8519 18.7269 8.25197 17.529L9.14691 14.8419C9.18007 14.7418 9.24395 14.6546 9.32947 14.5928C9.41498 14.5311 9.51779 14.4978 9.62328 14.4978C9.72878 14.4978 9.83159 14.5311 9.9171 14.5928C10.0026 14.6546 10.0665 14.7418 10.0997 14.8419L10.9946 17.529C11.1914 18.1198 11.5232 18.6566 11.9635 19.097C12.4038 19.5373 12.9406 19.869 13.5314 20.0659L16.2186 20.9608C16.3187 20.994 16.4059 21.0578 16.4676 21.1434C16.5294 21.2289 16.5626 21.3317 16.5626 21.4372C16.5626 21.5427 16.5294 21.6455 16.4676 21.731C16.4059 21.8165 16.3187 21.8804 16.2186 21.9136L13.5314 22.8085C12.9406 23.0053 12.4038 23.3371 11.9635 23.7774C11.5232 24.2177 11.1914 24.7545 10.9946 25.3453L10.0997 28.0325C10.0665 28.1326 10.0026 28.2197 9.9171 28.2815C9.83159 28.3433 9.72878 28.3765 9.62328 28.3765C9.51779 28.3765 9.41498 28.3433 9.32947 28.2815C9.24395 28.2197 9.18007 28.1326 9.14691 28.0325L8.25197 25.3453C8.05513 24.7545 7.72341 24.2177 7.28308 23.7774C6.84276 23.3371 6.30593 23.0053 5.71514 22.8085L3.02801 21.9136V21.9136ZM0.602185 5.56642C0.536339 5.54359 0.479242 5.50082 0.438833 5.44404C0.398423 5.38726 0.376709 5.3193 0.376709 5.24961C0.376709 5.17992 0.398423 5.11196 0.438833 5.05518C0.479242 4.9984 0.536339 4.95562 0.602185 4.93279L2.39207 4.33617C3.1922 4.07023 3.81889 3.44354 4.08482 2.64341L4.68145 0.853528C4.70428 0.787682 4.74706 0.730585 4.80384 0.690175C4.86062 0.649765 4.92857 0.628052 4.99827 0.628052C5.06796 0.628052 5.13592 0.649765 5.19269 0.690175C5.24947 0.730585 5.29225 0.787682 5.31508 0.853528L5.91171 2.64341C6.04288 3.03772 6.26417 3.39602 6.55801 3.68986C6.85185 3.9837 7.21015 4.20499 7.60446 4.33617L9.39435 4.93279C9.46019 4.95562 9.51729 4.9984 9.5577 5.05518C9.59811 5.11196 9.61982 5.17992 9.61982 5.24961C9.61982 5.3193 9.59811 5.38726 9.5577 5.44404C9.51729 5.50082 9.46019 5.54359 9.39435 5.56642L7.60446 6.16305C7.21015 6.29422 6.85185 6.51551 6.55801 6.80936C6.26417 7.1032 6.04288 7.4615 5.91171 7.85581L5.31508 9.64338C5.29225 9.70922 5.24947 9.76632 5.19269 9.80673C5.13592 9.84714 5.06796 9.86885 4.99827 9.86885C4.92857 9.86885 4.86062 9.84714 4.80384 9.80673C4.74706 9.76632 4.70428 9.70922 4.68145 9.64338L4.08482 7.8535C3.81889 7.05337 3.1922 6.42668 2.39207 6.16074L0.604497 5.56642H0.602185Z" fill="#F24E1E"/>
</svg>
