<svg width="83" height="68" viewBox="0 0 83 68" fill="none" xmlns="http://www.w3.org/2000/svg">
<circle cx="12.3767" cy="12.6234" r="12" transform="rotate(90 12.3767 12.6234)" fill="#387EB8"/>
<path d="M67.9339 55.0196C68.6971 55.274 68.6971 56.3516 67.9339 56.606L63.4546 58.0976C62.4699 58.4259 61.5753 58.979 60.8415 59.7132C60.1078 60.4473 59.5551 61.3423 59.2273 62.3271L57.7358 66.8042C57.4814 67.5673 56.4038 67.5673 56.1494 66.8042L54.6578 62.3248C54.3295 61.3402 53.7763 60.4455 53.0422 59.7117C52.308 58.978 51.4131 58.4253 50.4282 58.0976L45.9512 56.606C45.7841 56.5512 45.6386 56.4449 45.5354 56.3025C45.4323 56.1601 45.3767 55.9887 45.3767 55.8128C45.3767 55.6369 45.4323 55.4655 45.5354 55.3231C45.6386 55.1807 45.7841 55.0745 45.9512 55.0196L50.4305 53.528C51.415 53.2 52.3095 52.6472 53.0432 51.9134C53.7769 51.1797 54.3297 50.2852 54.6578 49.3008L56.1494 44.8214C56.2042 44.6543 56.3104 44.5088 56.4529 44.4057C56.5953 44.3025 56.7667 44.2469 56.9426 44.2469C57.1184 44.2469 57.2898 44.3025 57.4323 44.4057C57.5747 44.5088 57.6809 44.6543 57.7358 44.8214L59.2273 49.3008C59.5554 50.2852 60.1082 51.1797 60.8419 51.9134C61.5757 52.6472 62.4702 53.2 63.4546 53.528L67.9339 55.0196V55.0196ZM79.7254 46.0864C79.8256 46.1195 79.9127 46.1834 79.9745 46.2689C80.0362 46.3545 80.0695 46.4573 80.0695 46.5628C80.0695 46.6683 80.0362 46.7711 79.9745 46.8566C79.9127 46.9421 79.8256 47.006 79.7254 47.0391L77.0383 47.9341C75.8404 48.3341 74.9015 49.273 74.5015 50.4709L73.6065 53.158C73.5733 53.2582 73.5095 53.3453 73.424 53.4071C73.3384 53.4689 73.2356 53.5021 73.1301 53.5021C73.0246 53.5021 72.9218 53.4689 72.8363 53.4071C72.7508 53.3453 72.6869 53.2582 72.6538 53.158L71.7588 50.4709C71.562 49.8801 71.2303 49.3433 70.7899 48.903C70.3496 48.4626 69.8128 48.1309 69.222 47.9341L66.5349 47.0391C66.4347 47.006 66.3476 46.9421 66.2858 46.8566C66.224 46.7711 66.1908 46.6683 66.1908 46.5628C66.1908 46.4573 66.224 46.3545 66.2858 46.2689C66.3476 46.1834 66.4347 46.1195 66.5349 46.0864L69.222 45.1914C69.8128 44.9946 70.3496 44.6629 70.7899 44.2226C71.2303 43.7822 71.562 43.2454 71.7588 42.6546L72.6538 39.9675C72.6869 39.8673 72.7508 39.7802 72.8363 39.7184C72.9218 39.6567 73.0246 39.6234 73.1301 39.6234C73.2356 39.6234 73.3384 39.6567 73.424 39.7184C73.5095 39.7802 73.5733 39.8673 73.6065 39.9675L74.5015 42.6546C74.6983 43.2454 75.03 43.7822 75.4703 44.2226C75.9107 44.6629 76.4475 44.9946 77.0383 45.1914L79.7254 46.0864V46.0864ZM82.1512 62.4335C82.2171 62.4563 82.2742 62.4991 82.3146 62.5559C82.355 62.6127 82.3767 62.6806 82.3767 62.7503C82.3767 62.82 82.355 62.888 82.3146 62.9448C82.2742 63.0015 82.2171 63.0443 82.1512 63.0671L80.3614 63.6638C79.5612 63.9297 78.9345 64.5564 78.6686 65.3565L78.072 67.1464C78.0491 67.2123 78.0064 67.2694 77.9496 67.3098C77.8928 67.3502 77.8248 67.3719 77.7552 67.3719C77.6855 67.3719 77.6175 67.3502 77.5607 67.3098C77.5039 67.2694 77.4612 67.2123 77.4383 67.1464L76.8417 65.3565C76.7105 64.9622 76.4892 64.6039 76.1954 64.3101C75.9016 64.0162 75.5433 63.7949 75.149 63.6638L73.3591 63.0671C73.2932 63.0443 73.2361 63.0015 73.1957 62.9448C73.1553 62.888 73.1336 62.82 73.1336 62.7503C73.1336 62.6806 73.1553 62.6127 73.1957 62.5559C73.2361 62.4991 73.2932 62.4563 73.3591 62.4335L75.149 61.8369C75.5433 61.7057 75.9016 61.4844 76.1954 61.1906C76.4892 60.8967 76.7105 60.5384 76.8417 60.1441L77.4383 58.3566C77.4612 58.2907 77.5039 58.2336 77.5607 58.1932C77.6175 58.1528 77.6855 58.1311 77.7552 58.1311C77.8248 58.1311 77.8928 58.1528 77.9496 58.1932C78.0064 58.2336 78.0491 58.2907 78.072 58.3566L78.6686 60.1464C78.9345 60.9466 79.5612 61.5733 80.3614 61.8392L82.1489 62.4335H82.1512Z" fill="#F24E1E"/>
</svg>
