<svg width="42" height="42" viewBox="0 0 42 42" fill="none" xmlns="http://www.w3.org/2000/svg">
<path d="M41.5799 20.9999C41.5799 32.3651 32.3651 41.5799 20.9999 41.5799C9.63472 41.5799 0.419922 32.3651 0.419922 20.9999C0.419922 9.63472 9.63472 0.419922 20.9999 0.419922C32.3651 0.419922 41.5799 9.63472 41.5799 20.9999ZM20.8991 3.18352C11.0585 3.18352 3.08272 11.1593 3.08272 20.9999C3.08272 30.8405 11.0585 38.8163 20.8991 38.8163C30.7397 38.8163 38.7155 30.8405 38.7155 20.9999C38.7113 11.1593 30.7355 3.18352 20.8991 3.18352Z" fill="#FD7E14"/>
<path d="M21.0003 12.4656L7.3125 17.997L20.8953 24.549L31.9539 19.7694V23.1C31.9539 23.1 29.6481 25.6074 32.4159 26.838C32.9787 26.838 35.2299 25.9686 33.5919 23.1C33.5919 22.0248 33.3357 19.2612 33.3357 19.2612L33.9489 18.8454L21.0003 12.4656Z" fill="#FD7E14"/>
<path d="M13.8307 23.3813L20.9833 27.6191L28.1653 22.9109L29.0515 23.9483L20.9833 29.3159L13.0117 24.5111L13.8307 23.3813Z" fill="#FD7E14"/>
</svg>
