<svg width="66" height="66" viewBox="0 0 66 66" fill="none" xmlns="http://www.w3.org/2000/svg">
<g clip-path="url(#clip0_62_34)">
<path d="M20.6304 0H27.7199V2.9645H23.5949V5.929H27.7199V8.8935H20.6304V0ZM29.1361 0H36.2284V2.5795H32.1034V3.09375H36.2284V9.02275H29.1361V6.31675H33.2611V5.79975H29.1361V0ZM37.6474 0H44.7341V2.5795H40.6091V3.09375H44.7341V9.02275H37.6474V6.31675H41.7724V5.79975H37.6474V0Z" fill="#F24E1E"/>
<path fill-rule="evenodd" clip-rule="evenodd" d="M32.9753 66.0002L13.8792 60.6982L8.25 12.9719H57.75L52.1235 60.6927L32.9753 66.0002ZM19.3792 34.5759L19.9045 40.4279H40.1912L39.512 48.0179L32.9835 49.7834H32.978L26.4605 48.0234L26.0425 43.3567H20.1658L20.9853 52.5472L32.9753 55.8747L44.9845 52.5472L46.4475 36.1462L46.5905 34.5759L47.6465 22.7262H18.326L18.8595 28.5809H41.2335L40.7 34.5759H19.3792V34.5759Z" fill="#F24E1E"/>
</g>
<defs>
<clipPath id="clip0_62_34">
<rect width="66" height="66" fill="white"/>
</clipPath>
</defs>
</svg>
