<svg width="23" height="19" viewBox="0 0 23 19" fill="none" xmlns="http://www.w3.org/2000/svg">
<g clip-path="url(#clip0_101_870)">
<path d="M19 10.8224V15.1136C19 16.1842 18.6199 17.0996 17.8597 17.8597C17.0996 18.6199 16.1842 19 15.1136 19H3.88636C2.81581 19 1.90045 18.6199 1.14027 17.8597C0.38009 17.0996 0 16.1842 0 15.1136V3.88636C0 2.81581 0.38009 1.90045 1.14027 1.14027C1.90045 0.38009 2.81581 0 3.88636 0H15.1136C15.6804 0 16.2067 0.112453 16.6925 0.337358C16.8274 0.400331 16.9084 0.503788 16.9354 0.647727C16.9624 0.800663 16.9219 0.931108 16.8139 1.03906L16.1527 1.70028C16.0627 1.79025 15.9593 1.83523 15.8423 1.83523C15.8153 1.83523 15.7749 1.82623 15.7209 1.80824C15.514 1.75426 15.3116 1.72727 15.1136 1.72727H3.88636C3.29261 1.72727 2.78433 1.93868 2.36151 2.36151C1.93868 2.78433 1.72727 3.29261 1.72727 3.88636V15.1136C1.72727 15.7074 1.93868 16.2157 2.36151 16.6385C2.78433 17.0613 3.29261 17.2727 3.88636 17.2727H15.1136C15.7074 17.2727 16.2157 17.0613 16.6385 16.6385C17.0613 16.2157 17.2727 15.7074 17.2727 15.1136V11.6861C17.2727 11.5691 17.3132 11.4702 17.3942 11.3892L18.2578 10.5256C18.3478 10.4356 18.4512 10.3906 18.5682 10.3906C18.6222 10.3906 18.6761 10.4041 18.7301 10.4311C18.91 10.5031 19 10.6335 19 10.8224ZM22.1172 4.22372L11.1328 15.2081C10.9169 15.424 10.6605 15.532 10.3636 15.532C10.0668 15.532 9.81037 15.424 9.59446 15.2081L3.7919 9.40554C3.57599 9.18963 3.46804 8.93324 3.46804 8.63636C3.46804 8.33949 3.57599 8.0831 3.7919 7.86719L5.27628 6.38281C5.49219 6.1669 5.74858 6.05895 6.04545 6.05895C6.34233 6.05895 6.59872 6.1669 6.81463 6.38281L10.3636 9.93182L19.0945 1.20099C19.3104 0.985085 19.5668 0.877131 19.8636 0.877131C20.1605 0.877131 20.4169 0.985085 20.6328 1.20099L22.1172 2.68537C22.3331 2.90128 22.4411 3.15767 22.4411 3.45455C22.4411 3.75142 22.3331 4.00781 22.1172 4.22372Z" fill="#23C1CC"/>
</g>
<defs>
<clipPath id="clip0_101_870">
<rect width="22.4545" height="19" fill="white"/>
</clipPath>
</defs>
</svg>
