<svg width="50" height="66" viewBox="0 0 50 66" fill="none" xmlns="http://www.w3.org/2000/svg">
<path d="M5.72021 0H8.69572V2.93975H11.4182V0H14.3937V8.899H11.4182V5.92075H8.69572V8.899H5.72296V0H5.72021ZM18.3042 2.95075H15.6862V0H23.9005V2.95075H21.2797V8.899H18.3042V2.95075V2.95075ZM25.204 0H28.306L30.2145 3.12675L32.1202 0H35.2222V8.899H32.2605V4.488L30.2145 7.65325H30.1622L28.1135 4.49075V8.899H25.204V0V0ZM36.7017 0H39.68V5.95925H43.86V8.90175H36.7017V0V0Z" fill="#F24E1E"/>
<path fill-rule="evenodd" clip-rule="evenodd" d="M5.6265 60.6982L0 12.9719H49.5L43.8707 60.6927L24.7225 66.0002L5.6265 60.6982ZM17.0032 34.5732L16.4698 28.5782H38.8685L39.391 22.7262H10.076L11.6545 40.4279H31.9412L31.262 48.0179L24.7335 49.7834H24.728L18.2105 48.0234L17.7925 43.3567H11.913L12.7325 52.5472L24.7225 55.8747L36.7318 52.5472L38.1947 36.1462L38.3377 34.5759H17.0032V34.5732Z" fill="#F24E1E"/>
</svg>
