<svg width="40" height="40" viewBox="0 0 40 40" fill="none" xmlns="http://www.w3.org/2000/svg">
<path fill-rule="evenodd" clip-rule="evenodd" d="M1.66675 4.72999C1.66675 3.91755 1.98949 3.13838 2.56398 2.56389C3.13846 1.9894 3.91764 1.66666 4.73008 1.66666H35.2668C35.6694 1.666 36.0682 1.74477 36.4403 1.89844C36.8125 2.05211 37.1506 2.27768 37.4355 2.56222C37.7204 2.84677 37.9463 3.1847 38.1004 3.55668C38.2544 3.92865 38.3336 4.32737 38.3334 4.72999V35.2667C38.3339 35.6694 38.2549 36.0682 38.101 36.4404C37.9472 36.8125 37.7215 37.1507 37.4368 37.4355C37.1521 37.7203 36.8141 37.9463 36.442 38.1003C36.0699 38.2544 35.6711 38.3335 35.2684 38.3333H4.73008C4.32766 38.3333 3.92918 38.254 3.55741 38.1C3.18564 37.9459 2.84787 37.7201 2.56339 37.4355C2.27891 37.1509 2.0533 36.813 1.89945 36.4411C1.7456 36.0693 1.66653 35.6707 1.66675 35.2683V4.72999ZM16.1801 15.6467H21.1451V18.14C21.8617 16.7067 23.6951 15.4167 26.4501 15.4167C31.7317 15.4167 32.9834 18.2717 32.9834 23.51V33.2133H27.6384V24.7033C27.6384 21.72 26.9217 20.0367 25.1017 20.0367C22.5767 20.0367 21.5267 21.8517 21.5267 24.7033V33.2133H16.1801V15.6467ZM7.01342 32.985H12.3601V15.4167H7.01342V32.9833V32.985ZM13.1251 9.68666C13.1352 10.1444 13.0537 10.5996 12.8855 11.0255C12.7173 11.4514 12.4657 11.8394 12.1455 12.1667C11.8253 12.494 11.4429 12.7541 11.0208 12.9317C10.5988 13.1092 10.1455 13.2007 9.68758 13.2007C9.22968 13.2007 8.7764 13.1092 8.35432 12.9317C7.93225 12.7541 7.5499 12.494 7.2297 12.1667C6.9095 11.8394 6.6579 11.4514 6.48968 11.0255C6.32146 10.5996 6.24 10.1444 6.25008 9.68666C6.26987 8.78808 6.64072 7.93298 7.28322 7.30447C7.92573 6.67596 8.78879 6.32402 9.68758 6.32402C10.5864 6.32402 11.4494 6.67596 12.0919 7.30447C12.7344 7.93298 13.1053 8.78808 13.1251 9.68666Z" fill="#F24E1E"/>
</svg>
