<svg width="97" height="66" viewBox="0 0 97 66" fill="none" xmlns="http://www.w3.org/2000/svg">
<g clip-path="url(#clip0_62_127)">
<path d="M28.8036 43.5519L31.7462 53.0996C32.4073 55.2674 32.6831 56.7807 32.5726 57.6432C34.182 53.333 35.3064 48.6358 35.9462 43.5519H39.4845C37.9631 51.8286 35.9564 57.8431 33.4656 61.5951C31.5249 64.4864 29.3989 65.932 27.0838 65.932C26.4666 65.932 25.7056 65.7455 24.8026 65.3752V63.3801C25.2438 63.4448 25.7614 63.4794 26.3567 63.4794C27.4367 63.4794 28.3072 63.18 28.9695 62.5826C29.7624 61.8547 30.1594 61.0366 30.1594 60.1298C30.1594 59.5107 29.8498 58.24 29.2335 56.3179L25.1335 43.5519H28.8034H28.8036ZM6.28286 37.6836L11.6725 54.128H11.7058L17.1286 37.6836H21.5591C22.5293 45.8388 23.1023 53.3006 23.2781 60.0642H19.5428C19.4114 53.7416 19.0473 47.7963 18.452 42.2272H18.4195L12.7314 60.0642H9.88676L4.23308 42.2272H4.19979C3.78034 47.5757 3.51634 53.5209 3.40628 60.0642H0C0.220126 52.1064 0.771009 44.6469 1.65265 37.6836H6.28305H6.28286Z" fill="#00758F"/>
<path d="M66.6614 37.3515C72.459 37.3515 75.3579 41.0554 75.3579 48.4597C75.3579 52.4833 74.4861 55.5225 72.7442 57.5757C72.4302 57.9509 72.0832 58.275 71.7178 58.5753L75.8206 60.6039L75.8167 60.6037L74.3599 63.1193L69.017 60.0018C68.1313 60.2641 67.1569 60.3952 66.095 60.3952C63.2483 60.3952 61.1219 59.5655 59.7161 57.9083C58.1729 56.0751 57.4017 53.189 57.4017 49.2551C57.4017 45.2543 58.272 42.2266 60.0145 40.1708C61.6015 38.2903 63.8175 37.3513 66.6614 37.3513V37.3515ZM48.9076 37.384C50.9797 37.384 52.8638 37.9385 54.5609 39.0435L53.6989 40.9643C52.2467 40.347 50.815 40.0371 49.403 40.0371C48.2574 40.0371 47.3746 40.3128 46.7593 40.8677C46.1405 41.4176 45.7577 42.1253 45.7577 42.988C45.7577 44.3137 46.7021 45.4633 48.4459 46.4345C49.0172 46.7468 49.5865 47.0627 50.1538 47.3822L50.2839 47.4554L50.3492 47.4921L50.4795 47.5652L50.5445 47.6019L50.6746 47.6753C51.9946 48.4195 53.2367 49.1298 53.2367 49.1298C54.9803 50.3675 55.8495 51.6871 55.8495 53.8606C55.8495 55.7587 55.1539 57.3168 53.7674 58.536C52.3799 59.7497 50.5158 60.3583 48.1814 60.3583C45.9981 60.3583 43.8821 59.6578 41.8325 58.2686L42.7913 56.3461C44.5552 57.2302 46.1513 57.6718 47.5845 57.6718C48.9287 57.6718 49.981 57.3716 50.7421 56.779C51.5018 56.1819 51.957 55.3493 51.957 54.2935C51.957 52.9646 51.0326 51.8286 49.3369 50.8756C48.8061 50.5824 48.2769 50.2863 47.7493 49.9874L47.6193 49.9138C47.3807 49.779 47.1403 49.6424 46.9049 49.5087L46.7772 49.4361C45.6322 48.7848 44.6422 48.2158 44.6422 48.2158C42.947 46.9758 42.0969 45.6454 42.0969 43.4532C42.0969 41.6402 42.7308 40.1748 43.9967 39.0599C45.2657 37.9427 46.9028 37.384 48.9076 37.384V37.384ZM82.1714 37.6836V57.3111H89.2135V60.0642H78.5998V37.6836H82.1714ZM93.1266 57.3196V57.7848H92.3524V60.0617H91.7605V57.7848H90.9562V57.3196H93.1268H93.1266ZM94.5563 57.3196L95.2997 59.1888L95.9826 57.3196H96.8217V60.0617H96.2638V57.9749L95.4865 60.0617H95.0843L94.3057 57.9749H94.2759V60.0617H93.748V57.3196H94.5565H94.5563ZM66.2968 40.1038C62.8803 40.1038 61.1711 42.9235 61.1711 48.559C61.1711 51.7872 61.624 54.128 62.5282 55.587C63.3655 56.9372 64.677 57.6111 66.4628 57.6111C69.8793 57.6111 71.5883 54.7695 71.5883 49.0889C71.5883 45.906 71.1354 43.5852 70.2324 42.1254C69.394 40.7782 68.0831 40.1038 66.297 40.1038H66.2968Z" fill="#F29111"/>
<path d="M57.3426 1.38677C58.4759 -1.39809 62.4388 0.710884 63.9766 1.68367C64.3535 1.92706 64.7858 2.44126 65.218 2.63131C65.8921 2.65779 66.5658 2.71055 67.2411 2.73873C68.5078 3.03639 69.6942 3.27959 70.6924 3.84806C75.3309 6.57978 78.3505 9.3635 81.1294 13.9616C81.7233 14.9355 82.02 15.9894 82.505 17.0433C83.1783 18.6143 83.9347 20.2633 84.7161 21.7488C85.066 22.4531 85.3366 23.2362 85.8224 23.8309C86.0121 24.1029 86.5509 24.1831 86.873 24.3455C87.7633 24.8064 88.842 25.1562 89.6794 25.6971C91.2431 26.6721 92.7551 27.8341 94.1296 29.0236C94.6419 29.4827 94.991 30.1327 95.4791 30.6183V30.8634C95.0458 30.9964 94.6141 31.1325 94.1819 31.2417C93.2381 31.4841 92.402 31.4293 91.4863 31.6719C90.9205 31.836 90.218 32.0526 89.6245 32.1076L89.6794 32.1628C90.0285 33.1604 91.9173 33.9717 92.7812 34.5683C93.8304 35.3255 94.8026 36.2438 95.5852 37.2985C95.8554 37.5676 96.1256 37.8125 96.3945 38.0809C96.5825 38.3528 96.6355 38.7046 96.8257 38.947V39.0291C96.6151 38.9548 96.4636 38.8129 96.32 38.6647L96.2344 38.5752C96.1487 38.4863 96.0623 38.399 95.9638 38.3269C95.3684 37.9203 94.7773 37.4339 94.1819 37.0559C93.1585 36.4065 91.9714 36.0296 90.9205 35.3777C90.3263 34.9993 89.7599 34.5683 89.1936 34.1353C88.6801 33.7557 88.1147 33.0269 87.792 32.486C87.602 32.1872 87.5759 31.836 87.3588 31.6199C87.3976 31.2589 87.7283 31.1516 88.0621 31.0635L88.1389 31.0433C88.254 31.0134 88.3668 30.9835 88.4651 30.944C89.8672 30.3487 91.5387 30.1327 93.6972 30.1868C93.6159 29.6448 92.2672 28.9695 91.8366 28.645C90.9723 28.022 90.0572 27.3721 89.1404 26.8051C88.6546 26.5082 87.8174 26.2915 87.2792 26.0488C86.5509 25.7512 84.9323 25.4537 84.5287 24.8867C83.8432 23.993 83.3508 22.927 82.8727 21.8502L82.7426 21.5563C82.6992 21.4584 82.6557 21.3605 82.6121 21.2626C82.047 19.9659 81.345 18.6139 80.7786 17.2862C80.4825 16.6384 80.3465 16.07 80.0222 15.4487C78.0541 11.6366 75.1412 8.44499 71.6096 6.20042C70.449 5.47007 69.1549 4.79419 67.7263 4.33483C66.9168 4.09031 65.9451 4.22553 65.0826 4.03793H64.5149C64.0303 3.90139 63.6258 3.38776 63.2478 3.11695C62.4129 2.55 61.5766 2.16931 60.5781 1.7648C60.2283 1.60255 59.2292 1.2247 58.8805 1.52217C58.6645 1.57645 58.555 1.65796 58.5018 1.87468C58.287 2.19806 58.4759 2.68521 58.6096 2.98344C59.0147 3.84768 59.5805 4.36131 60.0942 5.09166C60.5511 5.73937 61.1186 6.46972 61.4425 7.17397C62.1415 8.68781 62.467 10.365 63.1147 11.8787C63.3548 12.4479 63.7348 13.0956 64.0844 13.6091C64.3808 14.0166 64.9195 14.3112 65.0826 14.8271C65.4075 15.368 64.5962 17.1526 64.4084 17.7194C63.7058 19.9371 63.842 23.0198 64.651 24.9422L64.6941 25.0435L64.7372 25.1462C65.0326 25.8503 65.3488 26.6084 66.1342 26.8053C66.1883 26.7516 66.1342 26.7798 66.2414 26.7516C66.4315 25.2636 66.485 23.8307 66.9979 22.6666C67.2942 21.9387 67.886 21.4241 68.2916 20.8299C68.562 20.9918 68.562 21.4799 68.7232 21.8029C69.0741 22.6407 69.451 23.5592 69.8837 24.3994C70.7718 26.1298 71.7711 27.8074 72.9033 29.321C73.2824 29.8617 73.8205 30.4568 74.3057 30.9438C74.5219 31.1323 74.7639 31.2413 74.9264 31.4839H74.9793V31.5656C74.1703 31.2674 73.6575 30.4304 73.0122 29.9417C71.7974 29.0232 70.3425 27.6438 69.5051 26.3202C69.1549 25.5604 68.7763 24.8321 68.3988 24.076V24.0214C68.2375 24.2373 68.2916 24.4518 68.2108 24.7786C67.8606 26.1298 68.1303 27.6712 66.9168 28.1572C65.5412 28.7265 64.515 27.2387 64.0844 26.5627C62.7085 24.3187 62.3316 20.533 63.3019 17.4772C63.5175 16.8007 63.5468 15.9894 63.9231 15.4493C63.8418 14.961 63.4655 14.8275 63.2478 14.5283C62.8703 14.017 62.5471 13.4213 62.2516 12.8534C61.6838 11.744 61.2799 10.4186 60.8489 9.22886C60.6594 8.74303 60.6052 8.25531 60.4162 7.79539C60.094 7.09341 59.5 6.38915 59.0418 5.76811C58.4213 4.8755 56.6141 3.14551 57.3426 1.38677V1.38677ZM66.1877 6.68474C66.2598 6.75698 66.3468 6.82014 66.4368 6.88236L66.5453 6.95687C66.69 7.0571 66.8301 7.16262 66.916 7.30635C67.0522 7.49659 67.0775 7.68438 67.2405 7.875C67.2405 8.52498 67.0522 8.9571 66.6719 9.2264C66.6719 9.2264 66.6459 9.25476 66.6193 9.28124C66.4037 8.84798 66.2148 8.417 65.9977 7.98412C65.7303 7.60628 65.3522 7.30653 65.1344 6.87479H65.082V6.82052C65.4075 6.74015 65.7303 6.68474 66.1877 6.68474Z" fill="#00758F"/>
</g>
<defs>
<clipPath id="clip0_62_127">
<rect width="96.8252" height="66" fill="white"/>
</clipPath>
</defs>
</svg>
