<svg width="108" height="66" viewBox="0 0 108 66" fill="none" xmlns="http://www.w3.org/2000/svg">
<g clip-path="url(#clip0_62_18)">
<path d="M53.2015 65.8095C52.8373 65.8095 52.4972 65.7124 52.1813 65.5423L48.9504 63.6233C48.4645 63.3559 48.7075 63.2588 48.8533 63.2103C49.5091 62.9917 49.6306 62.9429 50.3108 62.5545C50.3837 62.5057 50.481 62.5301 50.5538 62.5786L53.0317 64.0605C53.1288 64.109 53.2503 64.109 53.323 64.0605L63.016 58.4488C63.1131 58.4002 63.1619 58.3029 63.1619 58.1816V46.9827C63.1619 46.861 63.1131 46.7641 63.016 46.7153L53.323 41.128C53.2259 41.0792 53.1044 41.0792 53.0317 41.128L43.3388 46.7153C43.2416 46.7638 43.1929 46.8853 43.1929 46.9824V58.1814C43.1929 58.2787 43.2416 58.4 43.3388 58.4488L45.9867 59.9792C47.42 60.7079 48.3188 59.8577 48.3188 59.0075V47.9542C48.3188 47.8085 48.4403 47.6626 48.6103 47.6626H49.8492C49.9951 47.6626 50.1407 47.7841 50.1407 47.9542V59.0075C50.1407 60.9265 49.0961 62.0441 47.2742 62.0441C46.7155 62.0441 46.2783 62.0441 45.0392 61.4367L42.4885 59.9792C41.8569 59.6149 41.4683 58.9345 41.4683 58.2058V47.0068C41.4683 46.2781 41.8569 45.5977 42.4885 45.2334L52.1813 39.6218C52.7887 39.2817 53.6148 39.2817 54.222 39.6218L63.9148 45.2334C64.5464 45.5977 64.9353 46.2781 64.9353 47.0068V58.2058C64.9353 58.9345 64.5464 59.6149 63.9148 59.9792L54.222 65.5909C53.9061 65.7367 53.5418 65.8095 53.2018 65.8095H53.2015ZM56.1896 58.1087C51.9385 58.1087 51.0639 56.1653 51.0639 54.5134C51.0639 54.3675 51.1854 54.2218 51.3554 54.2218H52.6187C52.7644 54.2218 52.8858 54.319 52.8858 54.4648C53.0803 55.7523 53.639 56.3839 56.214 56.3839C58.2545 56.3839 59.1294 55.9223 59.1294 54.8291C59.1294 54.1975 58.8862 53.7361 55.7039 53.4202C53.0559 53.1528 51.404 52.57 51.404 50.4565C51.404 48.4887 53.0561 47.3225 55.8254 47.3225C58.9347 47.3225 60.4653 48.3916 60.6598 50.7234C60.6598 50.7966 60.6354 50.8693 60.5868 50.9422C60.5381 50.9908 60.4653 51.0393 60.3924 51.0393H59.1291C59.0077 51.0393 58.8862 50.9422 58.862 50.8207C58.5705 49.4848 57.8173 49.0474 55.8254 49.0474C53.5904 49.0474 53.323 49.8249 53.323 50.4077C53.323 51.1123 53.639 51.3309 56.6512 51.7195C59.6393 52.1084 61.0484 52.6671 61.0484 54.7562C61.024 56.894 59.275 58.1087 56.1896 58.1087Z" fill="#539E43"/>
<path d="M23.1272 22.0096C23.1272 21.5724 22.8842 21.1591 22.4956 20.9405L12.1954 15.0132C12.0251 14.9158 11.8309 14.8673 11.6367 14.8429H11.5393C11.3451 14.8429 11.1507 14.9158 10.9807 15.0132L0.680452 20.9405C0.291599 21.1591 0.0488281 21.5722 0.0488281 22.0096L0.0732103 37.9456C0.0732103 38.1642 0.194701 38.3828 0.388917 38.4802C0.583344 38.6016 0.826115 38.6016 0.996369 38.4802L7.11818 34.9819C7.50683 34.7633 7.74981 34.3503 7.74981 33.9131V26.4551C7.74981 26.0179 7.99258 25.6049 8.38143 25.3863L10.9807 23.8801C11.1751 23.7586 11.3937 23.7098 11.6123 23.7098C11.8309 23.7098 12.0495 23.7586 12.2197 23.8801L14.819 25.3863C15.2078 25.6049 15.4506 26.0177 15.4506 26.4551V33.9131C15.4506 34.3503 15.6936 34.7633 16.0822 34.9819L22.204 38.4802C22.2986 38.5397 22.4081 38.5713 22.5198 38.5713C22.6316 38.5713 22.7411 38.5397 22.8356 38.4802C23.0301 38.3828 23.1516 38.1642 23.1516 37.9456L23.1272 22.0096ZM72.6362 0.0729889C72.442 -0.0243296 72.199 -0.0243296 72.0288 0.0729889C71.8345 0.194479 71.7131 0.388696 71.7131 0.607295V16.3979C71.7131 16.5436 71.6403 16.6892 71.4945 16.7865C71.3488 16.8593 71.2029 16.8593 71.0573 16.7865L68.4822 15.3047C68.2934 15.1972 68.0799 15.1407 67.8627 15.1407C67.6454 15.1407 67.4319 15.1972 67.2431 15.3047L56.9429 21.2565C56.5543 21.4751 56.3113 21.8881 56.3113 22.3253V34.2044C56.3113 34.6416 56.5543 35.0549 56.9429 35.2735L67.2431 41.2253C67.4319 41.3327 67.6454 41.3893 67.8627 41.3893C68.0799 41.3893 68.2934 41.3327 68.4822 41.2253L78.7824 35.2735C79.1711 35.0549 79.414 34.6419 79.414 34.2044V4.59147C79.414 4.12989 79.1711 3.71707 78.7824 3.49826L72.6364 0.0729889H72.6362ZM71.6889 30.2934C71.6889 30.4149 71.6403 30.512 71.543 30.5606L68.0206 32.6011C67.9714 32.6251 67.9174 32.6376 67.8627 32.6376C67.8079 32.6376 67.7539 32.6251 67.7047 32.6011L64.1823 30.5606C64.085 30.512 64.0365 30.3905 64.0365 30.2934V26.2121C64.0365 26.0907 64.085 25.9935 64.1823 25.945L67.7047 23.9042C67.7539 23.8802 67.8079 23.8678 67.8627 23.8678C67.9174 23.8678 67.9714 23.8802 68.0206 23.9042L71.543 25.945C71.6403 25.9933 71.6889 26.115 71.6889 26.2121V30.2934ZM106.914 26.115C107.302 25.8964 107.521 25.4834 107.521 25.046V22.1552C107.521 21.718 107.278 21.305 106.914 21.0864L96.6863 15.159C96.4975 15.0515 96.284 14.995 96.0667 14.995C95.8495 14.995 95.636 15.0515 95.4472 15.159L85.147 21.1106C84.7581 21.3292 84.5154 21.7422 84.5154 22.1794V34.0588C84.5154 34.496 84.7584 34.909 85.147 35.1276L95.3743 40.9579C95.7631 41.1765 96.2247 41.1765 96.5892 40.9579L102.784 37.5086C102.978 37.4113 103.1 37.1927 103.1 36.9741C103.1 36.7555 102.978 36.5369 102.784 36.4396L92.435 30.4878C92.2405 30.3664 92.119 30.1721 92.119 29.9535V26.2367C92.119 26.0181 92.2405 25.7995 92.435 25.7022L95.6658 23.8559C95.7604 23.7964 95.8699 23.7648 95.9816 23.7648C96.0934 23.7648 96.2028 23.7964 96.2974 23.8559L99.5285 25.7022C99.7229 25.8237 99.8442 26.0179 99.8442 26.2367V29.1519C99.8442 29.3705 99.9657 29.5891 100.16 29.6862C100.255 29.7457 100.364 29.7773 100.476 29.7773C100.588 29.7773 100.697 29.7457 100.792 29.6862L106.914 26.115V26.115Z" fill="#333333"/>
<path d="M95.9089 25.556C95.945 25.5322 95.9872 25.5195 96.0304 25.5195C96.0736 25.5195 96.1158 25.5322 96.1519 25.556L98.1197 26.6977C98.1924 26.7465 98.241 26.8192 98.241 26.9163V29.2001C98.241 29.2972 98.1926 29.3701 98.1197 29.4187L96.1519 30.5604C96.1158 30.5842 96.0736 30.5969 96.0304 30.5969C95.9872 30.5969 95.945 30.5842 95.9089 30.5604L93.9413 29.4187C93.8684 29.3701 93.8198 29.2972 93.8198 29.2001V26.9165C93.8198 26.8192 93.8682 26.7463 93.9413 26.6979L95.9089 25.556V25.556Z" fill="#539E43"/>
<path d="M50.6022 21.1107L40.3264 15.2077C40.2255 15.1567 40.1196 15.116 40.0105 15.0862L28.4956 34.8122C28.591 34.9287 28.7062 35.0273 28.8359 35.1037L39.1117 41.0069C39.4033 41.177 39.7434 41.2255 40.0591 41.1282L50.8696 21.3539C50.7967 21.2568 50.6994 21.1836 50.6022 21.1109V21.1107Z" fill="url(#paint0_linear_62_18)"/>
<path fill-rule="evenodd" clip-rule="evenodd" d="M38.7716 13.0452L38.626 13.1181H38.8202L38.7716 13.0452V13.0452Z" fill="url(#paint1_linear_62_18)"/>
<path fill-rule="evenodd" clip-rule="evenodd" d="M50.6271 35.0788C50.9187 34.9087 51.1373 34.6172 51.2346 34.3015L39.9623 15.0614C39.6707 15.0129 39.3548 15.037 39.0879 15.2071L28.8848 21.0861L39.8893 41.152C40.0494 41.1258 40.2048 41.0768 40.3509 41.0064L50.6269 35.079L50.6271 35.0788Z" fill="url(#paint2_linear_62_18)"/>
<path fill-rule="evenodd" clip-rule="evenodd" d="M51.5744 34.8849L51.5015 34.7634V34.9335L51.5742 34.8849H51.5744Z" fill="url(#paint3_linear_62_18)"/>
<path fill-rule="evenodd" clip-rule="evenodd" d="M50.6268 35.079L40.3752 40.9822C40.2304 41.056 40.0744 41.1053 39.9136 41.1279L40.108 41.4924L51.477 34.9092V34.7633L51.1855 34.2773C51.1369 34.6174 50.9183 34.909 50.6268 35.079V35.079Z" fill="url(#paint4_linear_62_18)"/>
<path fill-rule="evenodd" clip-rule="evenodd" d="M50.6268 35.079L40.3752 40.9822C40.2304 41.056 40.0744 41.1053 39.9136 41.1279L40.108 41.4924L51.477 34.9092V34.7633L51.1855 34.2773C51.1369 34.6174 50.9183 34.909 50.6268 35.079V35.079Z" fill="url(#paint5_linear_62_18)"/>
</g>
<defs>
<linearGradient id="paint0_linear_62_18" x1="38.1784" y1="29.4807" x2="66.2535" y2="14.2274" gradientUnits="userSpaceOnUse">
<stop offset="0.1376" stop-color="#41873F"/>
<stop offset="0.4032" stop-color="#54A044"/>
<stop offset="0.7136" stop-color="#66B848"/>
<stop offset="0.9081" stop-color="#6CC04A"/>
</linearGradient>
<linearGradient id="paint1_linear_62_18" x1="30.0537" y1="13.055" x2="48.9737" y2="13.055" gradientUnits="userSpaceOnUse">
<stop offset="0.09192" stop-color="#6CC04A"/>
<stop offset="0.2864" stop-color="#66B848"/>
<stop offset="0.5968" stop-color="#54A044"/>
<stop offset="0.8624" stop-color="#41873F"/>
</linearGradient>
<linearGradient id="paint2_linear_62_18" x1="27.9038" y1="28.0949" x2="51.5696" y2="28.0949" gradientUnits="userSpaceOnUse">
<stop offset="0.09192" stop-color="#6CC04A"/>
<stop offset="0.2864" stop-color="#66B848"/>
<stop offset="0.5968" stop-color="#54A044"/>
<stop offset="0.8624" stop-color="#41873F"/>
</linearGradient>
<linearGradient id="paint3_linear_62_18" x1="44.4166" y1="34.825" x2="51.5218" y2="34.825" gradientUnits="userSpaceOnUse">
<stop offset="0.09192" stop-color="#6CC04A"/>
<stop offset="0.2864" stop-color="#66B848"/>
<stop offset="0.5968" stop-color="#54A044"/>
<stop offset="0.8624" stop-color="#41873F"/>
</linearGradient>
<linearGradient id="paint4_linear_62_18" x1="27.9037" y1="37.9047" x2="51.5692" y2="37.9047" gradientUnits="userSpaceOnUse">
<stop offset="0.09192" stop-color="#6CC04A"/>
<stop offset="0.2864" stop-color="#66B848"/>
<stop offset="0.5968" stop-color="#54A044"/>
<stop offset="0.8624" stop-color="#41873F"/>
</linearGradient>
<linearGradient id="paint5_linear_62_18" x1="55.0169" y1="19.0487" x2="49.0215" y2="50.4644" gradientUnits="userSpaceOnUse">
<stop stop-color="#41873F"/>
<stop offset="0.3288" stop-color="#418B3D"/>
<stop offset="0.6352" stop-color="#419637"/>
<stop offset="0.9319" stop-color="#3FA92D"/>
<stop offset="1" stop-color="#3FAE2A"/>
</linearGradient>
<clipPath id="clip0_62_18">
<rect width="107.618" height="66" fill="white"/>
</clipPath>
</defs>
</svg>
