<svg width="67" height="66" viewBox="0 0 67 66" fill="none" xmlns="http://www.w3.org/2000/svg">
<g clip-path="url(#clip0_62_10)">
<path d="M32.8489 0.0185547C16.0689 0.0185547 17.1166 7.29538 17.1166 7.29538L17.1352 14.8344H33.1481V17.0978H10.7751C10.7751 17.0978 0.0375977 15.88 0.0375977 32.811C0.0375977 49.7424 9.4096 49.142 9.4096 49.142H15.0028V41.2851C15.0028 41.2851 14.7012 31.9131 24.2252 31.9131H40.1071C40.1071 31.9131 49.03 32.0573 49.03 23.2894V8.79215C49.03 8.79215 50.3852 0.0185547 32.8489 0.0185547ZM24.0194 5.08839C24.3978 5.08805 24.7726 5.16233 25.1222 5.30698C25.4719 5.45163 25.7896 5.6638 26.0571 5.93137C26.3247 6.19894 26.5369 6.51664 26.6815 6.86629C26.8262 7.21595 26.9005 7.5907 26.9001 7.9691C26.9005 8.34749 26.8262 8.72224 26.6815 9.0719C26.5369 9.42155 26.3247 9.73926 26.0571 10.0068C25.7896 10.2744 25.4719 10.4866 25.1222 10.6312C24.7726 10.7759 24.3978 10.8501 24.0194 10.8498C23.641 10.8501 23.2663 10.7759 22.9166 10.6312C22.567 10.4866 22.2492 10.2744 21.9817 10.0068C21.7141 9.73926 21.5019 9.42155 21.3573 9.0719C21.2126 8.72224 21.1384 8.34749 21.1387 7.9691C21.1384 7.5907 21.2126 7.21595 21.3573 6.86629C21.5019 6.51664 21.7141 6.19894 21.9817 5.93137C22.2492 5.6638 22.567 5.45163 22.9166 5.30698C23.2663 5.16233 23.641 5.08805 24.0194 5.08839V5.08839Z" fill="url(#paint0_linear_62_10)"/>
<path d="M33.3253 65.7737C50.1053 65.7737 49.0576 58.4969 49.0576 58.4969L49.039 50.9582H33.0258V48.6948H55.3988C55.3988 48.6948 66.1363 49.9125 66.1363 32.9811C66.1363 16.0499 56.7643 16.6503 56.7643 16.6503H51.1712V24.5069C51.1712 24.5069 51.4727 33.8789 41.9488 33.8789H26.0668C26.0668 33.8789 17.1439 33.7348 17.1439 42.5029V57.0004C17.1439 57.0004 15.789 65.7737 33.325 65.7737H33.3253ZM42.1548 60.7044C41.7764 60.7048 41.4017 60.6305 41.052 60.4858C40.7023 60.3412 40.3846 60.129 40.1171 59.8614C39.8495 59.5939 39.6373 59.2762 39.4927 58.9265C39.348 58.5769 39.2737 58.2021 39.2741 57.8237C39.2737 57.4453 39.348 57.0705 39.4926 56.7208C39.6372 56.3712 39.8494 56.0534 40.117 55.7858C40.3845 55.5182 40.7023 55.306 41.0519 55.1614C41.4016 55.0167 41.7764 54.9424 42.1548 54.9428C42.5332 54.9424 42.9079 55.0167 43.2576 55.1613C43.6073 55.306 43.925 55.5182 44.1925 55.7857C44.4601 56.0533 44.6723 56.371 44.8169 56.7207C44.9616 57.0703 45.0358 57.4451 45.0355 57.8235C45.0358 58.2019 44.9616 58.5766 44.8169 58.9263C44.6723 59.2759 44.4601 59.5936 44.1925 59.8612C43.925 60.1288 43.6073 60.3409 43.2576 60.4856C42.9079 60.6302 42.5332 60.7045 42.1548 60.7042V60.7044Z" fill="url(#paint1_linear_62_10)"/>
</g>
<defs>
<linearGradient id="paint0_linear_62_10" x1="6.38968" y1="5.93284" x2="39.1463" y2="38.3626" gradientUnits="userSpaceOnUse">
<stop stop-color="#387EB8"/>
<stop offset="1" stop-color="#366994"/>
</linearGradient>
<linearGradient id="paint1_linear_62_10" x1="26.4955" y1="26.7574" x2="61.6724" y2="60.0111" gradientUnits="userSpaceOnUse">
<stop stop-color="#FFE052"/>
<stop offset="1" stop-color="#FFC331"/>
</linearGradient>
<clipPath id="clip0_62_10">
<rect width="66.2588" height="66" fill="white"/>
</clipPath>
</defs>
</svg>
