<svg width="75" height="66" viewBox="0 0 75 66" fill="none" xmlns="http://www.w3.org/2000/svg">
<path d="M60.9293 21.3701C60.1406 21.0995 59.3453 20.8488 58.544 20.6183C58.6786 20.0683 58.8025 19.5249 58.9125 18.9912C60.7183 10.2256 59.5378 3.1639 55.5057 0.838844C51.6398 -1.3901 45.3174 0.934081 38.9322 6.49111C38.3029 7.03976 37.6876 7.60422 37.0868 8.18395C36.6846 7.79845 36.2753 7.42043 35.8591 7.05008C29.1671 1.10834 22.4594 -1.39589 18.4317 0.935818C14.5692 3.17171 13.4255 9.81021 15.0512 18.1175C15.2129 18.9403 15.3955 19.7588 15.5989 20.5723C14.6494 20.8421 13.7332 21.1292 12.8564 21.4349C5.0105 24.1704 0 28.4572 0 32.9038C0 37.4963 5.379 42.1027 13.5508 44.8959C14.2133 45.1214 14.8814 45.3304 15.5543 45.5226C15.3357 46.3987 15.1417 47.2808 14.9724 48.1678C13.4226 56.3309 14.6329 62.8126 18.4849 65.0343C22.4634 67.3286 29.141 64.9706 35.6429 59.2868C36.1701 58.8247 36.6857 58.3495 37.1893 57.8617C37.8399 58.4894 38.5079 59.0989 39.1924 59.6894C45.4908 65.109 51.711 67.2974 55.5593 65.0696C59.534 62.7686 60.826 55.8056 59.1487 47.3341C59.0166 46.6704 58.8685 46.01 58.7044 45.3535C59.1733 45.2146 59.6336 45.0716 60.0823 44.9228C68.5778 42.1082 74.1053 37.5577 74.1053 32.9038C74.1053 28.441 68.933 24.1253 60.9293 21.3701V21.3701ZM59.0868 41.9181C58.6815 42.0521 58.2658 42.1815 57.8421 42.3074C56.9042 39.3383 55.6386 36.1813 54.0896 32.9192C55.5677 29.735 56.7846 26.6182 57.6962 23.6685C58.4543 23.8879 59.1898 24.1192 59.8991 24.3632C66.7567 26.7242 70.9396 30.2143 70.9396 32.9038C70.9396 35.7685 66.4221 39.4873 59.0868 41.9181V41.9181ZM56.0433 47.949C56.7849 51.6947 56.8906 55.0816 56.3993 57.7294C55.9582 60.1086 55.0706 61.6946 53.973 62.33C51.6378 63.6818 46.6435 61.9247 41.2572 57.2897C40.6205 56.7407 39.9991 56.174 39.3939 55.5905C41.4822 53.3068 43.569 50.6521 45.6057 47.7035C49.1882 47.3856 52.5728 46.8657 55.6421 46.1562C55.7899 46.7506 55.9237 47.3483 56.0433 47.949V47.949ZM25.2641 62.0964C22.9825 62.902 21.1652 62.9252 20.0666 62.2918C17.7291 60.9437 16.7573 55.7393 18.0828 48.7583C18.2404 47.9334 18.4208 47.113 18.6239 46.2981C21.6593 46.9697 25.0192 47.4525 28.6101 47.7437C30.6608 50.6289 32.8078 53.2808 34.9716 55.6029C34.5118 56.0479 34.041 56.4815 33.5598 56.9032C30.6845 59.4165 27.8034 61.1996 25.2641 62.0964V62.0964ZM14.575 41.9004C10.9615 40.6652 7.97732 39.0601 5.9319 37.3085C4.09374 35.7346 3.16597 34.1717 3.16597 32.9038C3.16597 30.2054 7.18879 26.7635 13.8985 24.4243C14.7128 24.1406 15.565 23.8728 16.4493 23.6216C17.3768 26.6379 18.5932 29.7917 20.0611 32.9808C18.5741 36.2172 17.3403 39.4213 16.4039 42.4733C15.7897 42.2973 15.1798 42.1063 14.575 41.9004V41.9004ZM18.1581 17.5093C16.7654 10.3921 17.6903 5.02319 20.018 3.67569C22.497 2.24048 27.9791 4.28676 33.7573 9.4174C34.1341 9.75272 34.5047 10.0948 34.8691 10.4436C32.716 12.7556 30.5887 15.3878 28.5563 18.2559C25.071 18.5789 21.7348 19.0977 18.6676 19.7927C18.4786 19.0361 18.3087 18.2748 18.1581 17.5096V17.5093ZM50.1238 25.4027C49.3993 24.1513 48.648 22.9156 47.8703 21.6966C50.2347 21.9956 52.5001 22.3925 54.6275 22.8776C53.9889 24.9248 53.1928 27.0649 52.2558 29.2591C51.5709 27.9596 50.8601 26.6738 50.1238 25.4027V25.4027ZM37.0882 12.7061C38.5483 14.2881 40.0108 16.0542 41.4492 17.9705C38.5313 17.8327 35.6085 17.8321 32.6906 17.9687C34.1304 16.0701 35.6053 14.3063 37.0882 12.7061ZM23.969 25.4244C23.2419 26.6853 22.5444 27.963 21.877 29.2565C20.9553 27.0701 20.1665 24.9202 19.5224 22.8441C21.6367 22.3711 23.8914 21.9843 26.2408 21.6908C25.4544 22.9173 24.6969 24.1621 23.969 25.4241V25.4244ZM26.3082 44.3421C23.881 44.0712 21.5924 43.7044 19.4787 43.2441C20.1329 41.131 20.9391 38.9353 21.8807 36.702C22.5508 37.9964 23.2513 39.2749 23.9815 40.5364C24.7323 41.8332 25.5099 43.1035 26.3082 44.3421ZM37.1757 53.3245C35.675 51.7057 34.1785 49.9148 32.7169 47.9886C34.1359 48.0442 35.5824 48.0726 37.0526 48.0726C38.5631 48.0726 40.0562 48.0387 41.5259 47.9733C40.0828 49.9342 38.6259 51.7277 37.1757 53.3245ZM52.2856 36.588C53.2762 38.8459 54.111 41.0299 54.7739 43.1069C52.6255 43.5973 50.3056 43.9921 47.8613 44.2854C48.6445 43.0437 49.403 41.7865 50.1363 40.5147C50.8818 39.2219 51.5984 37.9127 52.2856 36.588V36.588ZM47.3941 38.933C46.2716 40.883 45.0859 42.796 43.8391 44.6689C41.5805 44.8289 39.3169 44.9084 37.0526 44.9072C34.7464 44.9072 32.5033 44.8354 30.3432 44.6953C29.0638 42.8267 27.8555 40.9103 26.721 38.9504H26.7213C25.5921 37.0008 24.5374 35.009 23.5594 32.9794C24.5349 30.9493 25.5864 28.9566 26.7118 27.0055L26.7115 27.0058C27.8364 25.0542 29.035 23.1461 30.3047 21.2855C32.5085 21.1188 34.7684 21.0319 37.0523 21.0319H37.0526C39.347 21.0319 41.6098 21.1197 43.813 21.2876C45.0699 23.1454 46.2609 25.0469 47.3837 26.9887C48.5127 28.9355 49.5782 30.9185 50.5783 32.9345C49.5884 34.9712 48.5264 36.9719 47.3941 38.933V38.933ZM53.9246 3.58132C56.406 5.01248 57.3711 10.7837 55.812 18.352C55.7124 18.8348 55.6007 19.3267 55.4791 19.8254C52.4043 19.1156 49.0658 18.5879 45.5704 18.2599C43.5342 15.3603 41.4243 12.7241 39.3062 10.4418C39.8613 9.90675 40.4296 9.38554 41.0106 8.87869C46.4817 4.11771 51.5949 2.23787 53.9246 3.58132V3.58132ZM37.0526 26.2865C40.7072 26.2865 43.67 29.2492 43.67 32.9038C43.67 36.5584 40.7072 39.5212 37.0526 39.5212C33.398 39.5212 30.4353 36.5584 30.4353 32.9038C30.4353 29.2492 33.398 26.2865 37.0526 26.2865V26.2865Z" fill="#00D8FF"/>
</svg>
