<svg width="67" height="82" viewBox="0 0 67 82" fill="none" xmlns="http://www.w3.org/2000/svg">
<circle cx="12" cy="70" r="12" fill="#23C1CC"/>
<path d="M54.3962 14.4428C54.6506 13.6797 55.7282 13.6797 55.9826 14.4428L57.4741 18.9221C57.8025 19.9068 58.3556 20.8015 59.0898 21.5352C59.8239 22.2689 60.7189 22.8216 61.7037 23.1494L66.1807 24.641C66.9439 24.8953 66.9439 25.973 66.1807 26.2273L61.7014 27.7189C60.7167 28.0472 59.8221 28.6004 59.0883 29.3345C58.3546 30.0687 57.8019 30.9636 57.4741 31.9485L55.9826 36.4255C55.9277 36.5926 55.8215 36.7381 55.6791 36.8413C55.5366 36.9445 55.3653 37 55.1894 37C55.0135 37 54.8421 36.9445 54.6997 36.8413C54.5573 36.7381 54.451 36.5926 54.3962 36.4255L52.9046 31.9462C52.5765 30.9617 52.0238 30.0672 51.29 29.3335C50.5563 28.5998 49.6618 28.047 48.6774 27.7189L44.198 26.2273C44.0309 26.1725 43.8854 26.0663 43.7822 25.9238C43.6791 25.7814 43.6235 25.61 43.6235 25.4341C43.6235 25.2583 43.6791 25.0869 43.7822 24.9444C43.8854 24.802 44.0309 24.6958 44.198 24.641L48.6774 23.1494C49.6618 22.8213 50.5563 22.2685 51.29 21.5348C52.0238 20.801 52.5765 19.9065 52.9046 18.9221L54.3962 14.4428ZM45.463 2.6513C45.4961 2.55115 45.56 2.46401 45.6455 2.40224C45.731 2.34047 45.8339 2.30723 45.9393 2.30723C46.0448 2.30723 46.1477 2.34047 46.2332 2.40224C46.3187 2.46401 46.3826 2.55115 46.4157 2.6513L47.3107 5.33843C47.7107 6.53631 48.6496 7.47519 49.8475 7.87526L52.5346 8.7702C52.6348 8.80336 52.7219 8.86724 52.7837 8.95276C52.8455 9.03827 52.8787 9.14108 52.8787 9.24658C52.8787 9.35207 52.8455 9.45488 52.7837 9.5404C52.7219 9.62591 52.6348 9.68979 52.5346 9.72295L49.8475 10.6179C49.2567 10.8147 48.7199 11.1465 48.2796 11.5868C47.8392 12.0271 47.5075 12.5639 47.3107 13.1547L46.4157 15.8419C46.3826 15.942 46.3187 16.0291 46.2332 16.0909C46.1477 16.1527 46.0448 16.1859 45.9393 16.1859C45.8339 16.1859 45.731 16.1527 45.6455 16.0909C45.56 16.0291 45.4961 15.942 45.463 15.8419L44.568 13.1547C44.3712 12.5639 44.0395 12.0271 43.5991 11.5868C43.1588 11.1465 42.622 10.8147 42.0312 10.6179L39.3441 9.72295C39.2439 9.68979 39.1568 9.62591 39.095 9.5404C39.0332 9.45488 39 9.35207 39 9.24658C39 9.14108 39.0332 9.03827 39.095 8.95276C39.1568 8.86724 39.2439 8.80336 39.3441 8.7702L42.0312 7.87526C42.622 7.67842 43.1588 7.3467 43.5991 6.90638C44.0395 6.46605 44.3712 5.92922 44.568 5.33843L45.463 2.6513ZM61.8101 0.225476C61.8329 0.15963 61.8757 0.102533 61.9325 0.0621238C61.9893 0.0217143 62.0572 0 62.1269 0C62.1966 0 62.2646 0.0217143 62.3213 0.0621238C62.3781 0.102533 62.4209 0.15963 62.4437 0.225476L63.0404 2.01536C63.3063 2.81549 63.933 3.44218 64.7331 3.70812L66.523 4.30474C66.5888 4.32757 66.6459 4.37035 66.6864 4.42713C66.7268 4.48391 66.7485 4.55187 66.7485 4.62156C66.7485 4.69125 66.7268 4.75921 66.6864 4.81599C66.6459 4.87276 66.5888 4.91554 66.523 4.93837L64.7331 5.535C64.3388 5.66617 63.9805 5.88746 63.6867 6.1813C63.3928 6.47515 63.1715 6.83345 63.0404 7.22776L62.4437 9.01764C62.4209 9.08348 62.3781 9.14058 62.3213 9.18099C62.2646 9.2214 62.1966 9.24311 62.1269 9.24311C62.0572 9.24311 61.9893 9.2214 61.9325 9.18099C61.8757 9.14058 61.8329 9.08348 61.8101 9.01764L61.2135 7.22776C61.0823 6.83345 60.861 6.47515 60.5672 6.1813C60.2733 5.88746 59.915 5.66617 59.5207 5.535L57.7331 4.93837C57.6673 4.91554 57.6102 4.87276 57.5698 4.81599C57.5294 4.75921 57.5077 4.69125 57.5077 4.62156C57.5077 4.55187 57.5294 4.48391 57.5698 4.42713C57.6102 4.37035 57.6673 4.32757 57.7331 4.30474L59.523 3.70812C60.3232 3.44218 60.9499 2.81549 61.2158 2.01536L61.8101 0.227788V0.225476Z" fill="#F24E1E"/>
</svg>
