<svg width="67" height="82" viewBox="0 0 67 82" fill="none" xmlns="http://www.w3.org/2000/svg">
<circle cx="54.7532" cy="12" r="12" transform="rotate(-180 54.7532 12)" fill="#387EB8"/>
<path d="M12.357 67.5572C12.1026 68.3203 11.025 68.3203 10.7706 67.5572L9.27903 63.0779C8.95071 62.0932 8.39756 61.1985 7.66341 60.4648C6.92926 59.7311 6.03429 59.1784 5.04945 58.8506L0.572426 57.359C-0.190702 57.1047 -0.190702 56.027 0.572426 55.7727L5.05176 54.2811C6.03643 53.9528 6.93109 53.3996 7.66484 52.6655C8.39859 51.9313 8.95125 51.0364 9.27903 50.0515L10.7706 45.5745C10.8254 45.4074 10.9317 45.2619 11.0741 45.1587C11.2165 45.0555 11.3879 45 11.5638 45C11.7397 45 11.911 45.0555 12.0535 45.1587C12.1959 45.2619 12.3021 45.4074 12.357 45.5745L13.8485 50.0538C14.1766 51.0383 14.7294 51.9328 15.4632 52.6665C16.1969 53.4002 17.0914 53.953 18.0758 54.2811L22.5551 55.7727C22.7222 55.8275 22.8678 55.9337 22.9709 56.0762C23.0741 56.2186 23.1296 56.39 23.1296 56.5659C23.1296 56.7417 23.0741 56.9131 22.9709 57.0556C22.8678 57.198 22.7222 57.3042 22.5551 57.359L18.0758 58.8506C17.0914 59.1787 16.1969 59.7315 15.4632 60.4652C14.7294 61.199 14.1766 62.0935 13.8485 63.0779L12.357 67.5572V67.5572ZM21.2902 79.3487C21.257 79.4488 21.1932 79.536 21.1076 79.5978C21.0221 79.6595 20.9193 79.6928 20.8138 79.6928C20.7083 79.6928 20.6055 79.6595 20.52 79.5978C20.4345 79.536 20.3706 79.4488 20.3374 79.3487L19.4425 76.6616C19.0424 75.4637 18.1036 74.5248 16.9057 74.1247L14.2185 73.2298C14.1184 73.1966 14.0313 73.1328 13.9695 73.0472C13.9077 72.9617 13.8745 72.8589 13.8745 72.7534C13.8745 72.6479 13.9077 72.5451 13.9695 72.4596C14.0313 72.3741 14.1184 72.3102 14.2185 72.277L16.9057 71.3821C17.4965 71.1853 18.0333 70.8535 18.4736 70.4132C18.9139 69.9729 19.2457 69.4361 19.4425 68.8453L20.3374 66.1581C20.3706 66.058 20.4345 65.9709 20.52 65.9091C20.6055 65.8473 20.7083 65.8141 20.8138 65.8141C20.9193 65.8141 21.0221 65.8473 21.1076 65.9091C21.1932 65.9709 21.257 66.058 21.2902 66.1581L22.1851 68.8453C22.382 69.4361 22.7137 69.9729 23.154 70.4132C23.5944 70.8535 24.1312 71.1853 24.722 71.3821L27.4091 72.277C27.5092 72.3102 27.5964 72.3741 27.6582 72.4596C27.7199 72.5451 27.7532 72.6479 27.7532 72.7534C27.7532 72.8589 27.7199 72.9617 27.6582 73.0472C27.5964 73.1328 27.5092 73.1966 27.4091 73.2298L24.722 74.1247C24.1312 74.3216 23.5944 74.6533 23.154 75.0936C22.7137 75.534 22.382 76.0708 22.1851 76.6616L21.2902 79.3487V79.3487ZM4.94307 81.7745C4.92024 81.8404 4.87746 81.8975 4.82069 81.9379C4.76391 81.9783 4.69595 82 4.62626 82C4.55657 82 4.48861 81.9783 4.43183 81.9379C4.37505 81.8975 4.33227 81.8404 4.30944 81.7745L3.71281 79.9846C3.44688 79.1845 2.82019 78.5578 2.02006 78.2919L0.230176 77.6953C0.16433 77.6724 0.107232 77.6297 0.0668229 77.5729C0.0264134 77.5161 0.00469954 77.4481 0.00469954 77.3784C0.00469954 77.3088 0.0264134 77.2408 0.0668229 77.184C0.107232 77.1272 0.16433 77.0845 0.230176 77.0616L2.02006 76.465C2.41437 76.3338 2.77267 76.1125 3.06651 75.8187C3.36035 75.5249 3.58164 75.1666 3.71281 74.7722L4.30944 72.9824C4.33227 72.9165 4.37505 72.8594 4.43183 72.819C4.48861 72.7786 4.55657 72.7569 4.62626 72.7569C4.69595 72.7569 4.76391 72.7786 4.82069 72.819C4.87746 72.8594 4.92024 72.9165 4.94307 72.9824L5.5397 74.7722C5.67087 75.1666 5.89216 75.5249 6.186 75.8187C6.47985 76.1125 6.83815 76.3338 7.23245 76.465L9.02002 77.0616C9.08587 77.0845 9.14297 77.1272 9.18338 77.184C9.22379 77.2408 9.2455 77.3088 9.2455 77.3784C9.2455 77.4481 9.22379 77.5161 9.18338 77.5729C9.14297 77.6297 9.08587 77.6724 9.02002 77.6953L7.23014 78.2919C6.43002 78.5578 5.80332 79.1845 5.53739 79.9846L4.94307 81.7722V81.7745Z" fill="#F24E1E"/>
</svg>
