<svg width="40" height="40" viewBox="0 0 40 40" fill="none" xmlns="http://www.w3.org/2000/svg">
<path d="M39.4051 8.2283C38.0134 8.84496 36.5184 9.26163 34.9468 9.44997C36.5684 8.47962 37.7817 6.95241 38.3601 5.1533C36.8365 6.05828 35.169 6.69529 33.4301 7.03663C32.2607 5.78807 30.7119 4.96051 29.024 4.68242C27.3361 4.40434 25.6036 4.69128 24.0955 5.49872C22.5874 6.30616 21.3881 7.5889 20.6837 9.14781C19.9793 10.7067 19.8093 12.4545 20.2001 14.12C17.1129 13.965 14.0928 13.1625 11.3358 11.7648C8.5788 10.3671 6.1465 8.40523 4.19677 6.00663C3.5301 7.15663 3.14677 8.48997 3.14677 9.90997C3.14602 11.1883 3.46082 12.447 4.06323 13.5745C4.66564 14.702 5.53704 15.6634 6.6001 16.3733C5.36723 16.3341 4.16156 16.0009 3.08343 15.4016V15.5016C3.08331 17.2945 3.70349 19.0323 4.83874 20.42C5.97399 21.8077 7.55439 22.7598 9.31177 23.115C8.16807 23.4245 6.969 23.4701 5.8051 23.2483C6.30093 24.791 7.26676 26.14 8.56738 27.1065C9.868 28.073 11.4383 28.6086 13.0584 28.6383C10.3082 30.7973 6.91158 31.9684 3.4151 31.9633C2.79574 31.9635 2.17689 31.9273 1.56177 31.855C5.11089 34.1369 9.24233 35.348 13.4618 35.3433C27.7451 35.3433 35.5534 23.5133 35.5534 13.2533C35.5534 12.92 35.5451 12.5833 35.5301 12.25C37.0489 11.1516 38.36 9.79146 39.4018 8.2333L39.4051 8.2283Z" fill="#F24E1E"/>
</svg>
