<svg width="33" height="52" viewBox="0 0 33 52" fill="none" xmlns="http://www.w3.org/2000/svg">
<rect y="19" width="32.9114" height="32.9114" rx="16.4557" fill="#FD7E14"/>
<rect width="32.9114" height="32.9114" rx="16.4557" fill="#2BCC3C"/>
<path d="M15.6338 11.8906H16.9766V16.6123C16.9766 17.1559 16.8594 17.6133 16.625 17.9844C16.3906 18.3522 16.0716 18.6305 15.668 18.8193C15.2643 19.0049 14.8053 19.0977 14.291 19.0977C13.7702 19.0977 13.3063 19.0049 12.8994 18.8193C12.4925 18.6305 12.1735 18.3522 11.9424 17.9844C11.7113 17.6133 11.5957 17.1559 11.5957 16.6123V11.8906H12.9385V16.6123C12.9385 16.9443 12.9938 17.2161 13.1045 17.4277C13.2152 17.6361 13.3714 17.7907 13.5732 17.8916C13.7751 17.9925 14.0143 18.043 14.291 18.043C14.571 18.043 14.8102 17.9925 15.0088 17.8916C15.2106 17.7907 15.3652 17.6361 15.4727 17.4277C15.5801 17.2161 15.6338 16.9443 15.6338 16.6123V11.8906ZM19.6816 11.8906V19H18.3389V11.8906H19.6816Z" fill="white"/>
<path d="M14.6338 30.8906H15.9766V35.6123C15.9766 36.1559 15.8594 36.6133 15.625 36.9844C15.3906 37.3522 15.0716 37.6305 14.668 37.8193C14.2643 38.0049 13.8053 38.0977 13.291 38.0977C12.7702 38.0977 12.3063 38.0049 11.8994 37.8193C11.4925 37.6305 11.1735 37.3522 10.9424 36.9844C10.7113 36.6133 10.5957 36.1559 10.5957 35.6123V30.8906H11.9385V35.6123C11.9385 35.9443 11.9938 36.2161 12.1045 36.4277C12.2152 36.6361 12.3714 36.7907 12.5732 36.8916C12.7751 36.9925 13.0143 37.043 13.291 37.043C13.571 37.043 13.8102 36.9925 14.0088 36.8916C14.2106 36.7907 14.3652 36.6361 14.4727 36.4277C14.5801 36.2161 14.6338 35.9443 14.6338 35.6123V30.8906ZM18.3203 30.8906L19.7412 33.4248L21.167 30.8906H22.71L20.6006 34.416L22.7637 38H21.2061L19.7412 35.417L18.2812 38H16.7188L18.8818 34.416L16.7725 30.8906H18.3203Z" fill="white"/>
</svg>
