<svg width="119" height="50" viewBox="0 0 119 50" fill="none" xmlns="http://www.w3.org/2000/svg">
<path d="M5.2393 11.5409V30.9558C5.2393 33.264 5.83826 35.0024 7.03617 36.1711C8.26331 37.3398 9.95791 37.9242 12.12 37.9242C14.3113 37.9242 16.0059 37.3398 17.2038 36.1711C18.431 35.0024 19.0445 33.264 19.0445 30.9558V11.5409H24.0407V30.8682C24.0407 33.3517 23.5002 35.4553 22.4191 37.1791C21.3381 38.903 19.8918 40.1885 18.0803 41.0358C16.2689 41.8831 14.2675 42.3068 12.0762 42.3068C9.88487 42.3068 7.88348 41.8831 6.072 41.0358C4.28974 40.1885 2.8727 38.903 1.82087 37.1791C0.769044 35.4553 0.243131 33.3517 0.243131 30.8682V11.5409H5.2393ZM35.542 11.5409V42H30.5458V11.5409H35.542ZM58.3172 0.62817L46.3965 49.6696H41.4879L53.3648 0.62817H58.3172ZM69.5661 11.5409V30.9558C69.5661 33.264 70.165 35.0024 71.3629 36.1711C72.5901 37.3398 74.2847 37.9242 76.4468 37.9242C78.6381 37.9242 80.3327 37.3398 81.5306 36.1711C82.7577 35.0024 83.3713 33.264 83.3713 30.9558V11.5409H88.3675V30.8682C88.3675 33.3517 87.8269 35.4553 86.7459 37.1791C85.6649 38.903 84.2186 40.1885 82.4071 41.0358C80.5956 41.8831 78.5942 42.3068 76.4029 42.3068C74.2116 42.3068 72.2102 41.8831 70.3988 41.0358C68.6165 40.1885 67.1995 38.903 66.1476 37.1791C65.0958 35.4553 64.5699 33.3517 64.5699 30.8682V11.5409H69.5661ZM108.853 26.7923L118.32 42H112.71L105.829 30.9558L99.3866 42H93.8207L103.287 26.7923L93.7769 11.5409H99.3866L106.311 22.6727L112.797 11.5409H118.363L108.853 26.7923Z" fill="black"/>
</svg>
