<svg width="33" height="52" viewBox="0 0 33 52" fill="none" xmlns="http://www.w3.org/2000/svg">
<rect y="19" width="32.9114" height="32.9114" rx="16.4557" fill="#23C1CC"/>
<rect width="32.9114" height="32.9114" rx="16.4557" fill="#FD7E14"/>
<path d="M14.4268 17.6377L15.8428 11.8906H16.6094L16.6582 13.1016L15.1445 19H14.334L14.4268 17.6377ZM13.5332 11.8906L14.6953 17.6182V19H13.8115L12.2002 11.8906H13.5332ZM18.1279 17.5938L19.2705 11.8906H20.6084L18.9971 19H18.1133L18.1279 17.5938ZM16.9756 11.8906L18.3916 17.6572L18.4746 19H17.6641L16.1553 13.0967L16.2139 11.8906H16.9756Z" fill="white"/>
<path d="M15.8027 39H14.2695L14.2793 37.9453H15.8027C16.2161 37.9453 16.5628 37.8542 16.8428 37.6719C17.1227 37.4863 17.3343 37.221 17.4775 36.876C17.6208 36.5277 17.6924 36.111 17.6924 35.626V35.2598C17.6924 34.8854 17.6517 34.555 17.5703 34.2686C17.4889 33.9821 17.3685 33.7412 17.209 33.5459C17.0527 33.3506 16.859 33.2025 16.6279 33.1016C16.3968 33.0007 16.1315 32.9502 15.832 32.9502H14.2402V31.8906H15.832C16.3073 31.8906 16.7402 31.9704 17.1309 32.1299C17.5247 32.2894 17.8649 32.5189 18.1514 32.8184C18.4411 33.1146 18.6624 33.4694 18.8154 33.8828C18.9717 34.2962 19.0498 34.7585 19.0498 35.2695V35.626C19.0498 36.1338 18.9717 36.596 18.8154 37.0127C18.6624 37.4261 18.4411 37.7809 18.1514 38.0771C17.8649 38.3734 17.5231 38.6012 17.126 38.7607C16.7288 38.9202 16.2878 39 15.8027 39ZM15.0215 31.8906V39H13.6787V31.8906H15.0215Z" fill="white"/>
</svg>
